<svg aria-hidden="true" style="position: absolute; width: 0; height: 0; overflow: hidden;" version="1.1"
    xmlns="http://www.w3.org/2000/svg" xmlns:xlink="http://www.w3.org/1999/xlink">
    <defs>
        <symbol id="facebook" viewBox="0 0 32 32">
            <path stroke-linejoin="round" stroke-linecap="round" stroke-miterlimit="4" stroke-width="1.5"
                d="M28 10.667v10.666c0 3.682-2.985 6.667-6.667 6.667v0h-10.666c-3.682 0-6.667-2.985-6.667-6.667v-10.666c0-3.682 2.985-6.667 6.667-6.667v0h10.666c3.682 0 6.667 2.985 6.667 6.667v0z">
            </path>
            <path stroke-linejoin="round" stroke-linecap="round" stroke-miterlimit="4" stroke-width="1.5"
                d="M14.667 28v-12c0-2.917 0.666-5.333 5.333-5.333M12 17.333h8"></path>
        </symbol>
        <symbol id="twitter" viewBox="0 0 32 32">
            <path
                d="M30.688 8.713c-0.056-0.136-0.152-0.253-0.274-0.335s-0.266-0.127-0.413-0.128h-3.95c-0.488-0.897-1.206-1.647-2.081-2.175s-1.873-0.812-2.894-0.825c-1.534-0.007-3.008 0.595-4.1 1.672s-1.712 2.544-1.725 4.078v1.088c-5.3-1.262-9.675-5.575-9.725-5.612-0.096-0.095-0.217-0.162-0.348-0.195s-0.269-0.028-0.399 0.011c-0.129 0.040-0.246 0.114-0.337 0.214s-0.153 0.224-0.179 0.356c-1.087 5.95 0.7 9.925 2.388 12.212 0.895 1.225 1.994 2.286 3.25 3.137-1.938 2.35-5.125 3.575-5.162 3.587-0.106 0.039-0.202 0.102-0.281 0.185s-0.136 0.182-0.169 0.29c-0.035 0.106-0.046 0.218-0.031 0.329s0.056 0.216 0.118 0.308c0.125 0.188 1.35 1.837 5.625 1.837 8.713 0 16-6.738 16.7-15.387l3.825-3.838c0.108-0.102 0.182-0.235 0.212-0.38s0.012-0.297-0.049-0.432zM25.438 12.5c-0.13 0.13-0.206 0.304-0.212 0.488-0.512 8-7.2 14.262-15.225 14.262-1.737 0-2.85-0.3-3.512-0.6 1.412-0.712 3.725-2.113 5.137-4.238 0.056-0.088 0.094-0.187 0.111-0.29s0.013-0.209-0.011-0.31c-0.027-0.104-0.075-0.201-0.142-0.285s-0.15-0.153-0.246-0.202c-0.025 0-1.9-0.975-3.525-3.2-1.938-2.65-2.7-5.887-2.275-9.625 1.825 1.55 5.762 4.475 10.337 5.238 0.108 0.020 0.219 0.017 0.325-0.011s0.204-0.079 0.288-0.149c0.084-0.071 0.151-0.159 0.196-0.259s0.068-0.208 0.066-0.318v-2c0.010-1.133 0.468-2.216 1.273-3.012s1.894-1.241 3.027-1.238c0.819 0.012 1.616 0.258 2.299 0.71s1.221 1.091 1.551 1.84c0.057 0.135 0.153 0.249 0.275 0.33s0.266 0.122 0.412 0.12h2.6l-2.75 2.75z">
            </path>
        </symbol>
        <symbol id="instagram" viewBox="0 0 32 32">
            <path
                d="M16 10.25c-1.137 0-2.249 0.337-3.194 0.969s-1.683 1.53-2.118 2.581c-0.435 1.051-0.549 2.207-0.327 3.322s0.77 2.14 1.574 2.944c0.804 0.804 1.829 1.352 2.944 1.574s2.272 0.108 3.322-0.327c1.051-0.435 1.949-1.172 2.581-2.118s0.969-2.057 0.969-3.194c0-1.525-0.606-2.987-1.684-4.066s-2.541-1.684-4.066-1.684zM16 20.25c-0.841 0-1.662-0.249-2.361-0.716s-1.244-1.131-1.565-1.907-0.406-1.631-0.242-2.456c0.164-0.825 0.569-1.582 1.163-2.176s1.352-0.999 2.176-1.163c0.824-0.164 1.679-0.080 2.456 0.242s1.44 0.866 1.907 1.565c0.467 0.699 0.716 1.521 0.716 2.361-0.003 1.126-0.452 2.205-1.248 3.002s-1.875 1.245-3.002 1.248zM21.5 3.75h-11c-1.79 0-3.507 0.711-4.773 1.977s-1.977 2.983-1.977 4.773v11c0 1.79 0.711 3.507 1.977 4.773s2.983 1.977 4.773 1.977h11c1.79 0 3.507-0.711 4.773-1.977s1.977-2.983 1.977-4.773v-11c0-1.79-0.711-3.507-1.977-4.773s-2.983-1.977-4.773-1.977zM26.75 21.5c0 1.392-0.553 2.728-1.538 3.712s-2.32 1.538-3.712 1.538h-11c-1.392 0-2.728-0.553-3.712-1.538s-1.538-2.32-1.538-3.712v-11c0-1.392 0.553-2.728 1.538-3.712s2.32-1.538 3.712-1.538h11c1.392 0 2.728 0.553 3.712 1.538s1.538 2.32 1.538 3.712v11zM23.75 9.5c0 0.247-0.073 0.489-0.211 0.694s-0.332 0.366-0.561 0.46c-0.229 0.095-0.48 0.119-0.722 0.071s-0.465-0.167-0.64-0.342-0.294-0.398-0.342-0.64c-0.048-0.242-0.023-0.494 0.071-0.722s0.255-0.424 0.46-0.561c0.206-0.137 0.447-0.211 0.695-0.211 0.331 0 0.649 0.132 0.884 0.366s0.366 0.552 0.366 0.884z">
            </path>
        </symbol>
        <symbol id="beauty-treatment" viewBox="0 0 32 32">
            <path fill="#617c5f" style="fill: var(--color1, #617c5f)"
                d="M23.907 7.592c-2.121-1.828-4.937-2.835-7.93-2.835s-5.809 1.007-7.93 2.835c-2.137 1.842-3.313 4.296-3.313 6.909 0 2.874 1.448 5.578 3.976 7.435 0.138 0.287 0.29 0.569 0.455 0.846l-0.85 0.425c-0.062 0.031-0.115 0.079-0.151 0.138s-0.056 0.127-0.056 0.197c0 0.070 0.019 0.138 0.056 0.197s0.089 0.107 0.151 0.138l1.052 0.526c0.217 0.109 0.394 0.285 0.503 0.503l0.526 1.052c0.031 0.062 0.079 0.115 0.138 0.151s0.127 0.056 0.197 0.056c0.070 0 0.138-0.019 0.197-0.056s0.107-0.089 0.138-0.151l0.286-0.573c1.416 1.201 3.042 1.857 4.625 1.857h5.247c0.056 0 0.111-0.013 0.162-0.037s0.095-0.060 0.13-0.103l3.297-4.107c0.343-0.349 0.535-0.82 0.534-1.31v-1.796c1.226-1.598 1.874-3.459 1.874-5.389 0-2.613-1.177-5.067-3.313-6.909zM5.483 14.501c0-4.96 4.707-8.995 10.494-8.995 1.267-0.002 2.527 0.196 3.732 0.588-0.097 0.713-0.637 1.802-1.406 2.808-0.846 1.107-1.781 1.85-2.326 1.85-2.273 0-4.333 0.648-5.8 1.825-1.6 1.284-2.445 3.115-2.445 5.295 0.006 0.883 0.142 1.761 0.406 2.604-1.701-1.637-2.654-3.755-2.654-5.977zM22.81 16.429c-0.145 0.143-0.261 0.314-0.34 0.502s-0.12 0.39-0.121 0.594v3.594l-0.663 0.853c-0.094-0.228-0.244-0.429-0.434-0.585s-0.417-0.263-0.658-0.311-0.492-0.036-0.727 0.036c-0.236 0.072-0.45 0.2-0.625 0.374-0.016 0.016-0.031 0.034-0.044 0.052l-3.414 4.952c-1.389-0.053-2.816-0.678-4.066-1.778 0.102-0.129 0.231-0.234 0.377-0.308l1.052-0.526c0.062-0.031 0.115-0.079 0.151-0.138s0.056-0.127 0.056-0.197c0-0.070-0.019-0.138-0.056-0.197s-0.089-0.107-0.151-0.138l-1.052-0.526c-0.217-0.109-0.394-0.286-0.503-0.503l-0.526-1.052c-0.031-0.062-0.079-0.115-0.138-0.151s-0.127-0.056-0.197-0.056c-0.070 0-0.138 0.019-0.197 0.056s-0.107 0.089-0.138 0.151l-0.526 1.052c-0.028 0.055-0.060 0.109-0.097 0.159-0.834-1.42-1.29-2.989-1.29-4.463 0-1.945 0.749-3.574 2.165-4.711 1.334-1.071 3.227-1.661 5.331-1.661 1.856 0 3.522 0.446 4.817 1.289 1.24 0.807 2.083 1.956 2.456 3.336-0.164 0.073-0.313 0.176-0.441 0.302zM10.73 24.953l-0.191-0.382c-0.182-0.362-0.476-0.656-0.838-0.838l-0.382-0.191 0.382-0.191c0.362-0.182 0.656-0.476 0.838-0.838l0.191-0.382 0.191 0.382c0.182 0.362 0.476 0.656 0.838 0.838l0.382 0.191-0.382 0.191c-0.362 0.182-0.656 0.476-0.838 0.838l-0.191 0.382zM24.597 21.686c0 0.148-0.028 0.294-0.085 0.43s-0.14 0.26-0.244 0.365c-0.010 0.010-0.019 0.020-0.027 0.030l-3.196 3.982h-4.354l3.102-4.5c0.144-0.133 0.335-0.205 0.531-0.199s0.383 0.088 0.519 0.23c0.136 0.142 0.211 0.331 0.209 0.528s-0.082 0.384-0.221 0.523c-0.014 0.014-0.027 0.029-0.038 0.045l-0.996 1.37c-0.056 0.081-0.078 0.18-0.062 0.277s0.070 0.183 0.149 0.241c0.079 0.058 0.178 0.082 0.275 0.067s0.185-0.066 0.244-0.145l0.98-1.348c0.073-0.077 0.139-0.161 0.194-0.251l1.442-1.855c0.051-0.066 0.079-0.146 0.079-0.229v-3.722c0.001-0.104 0.022-0.208 0.062-0.304s0.1-0.183 0.174-0.257c0.069-0.069 0.151-0.124 0.242-0.161s0.188-0.055 0.285-0.054c0.196 0.005 0.382 0.086 0.52 0.226s0.215 0.328 0.215 0.524v4.187zM23.994 16.008c-0.41-1.594-1.37-2.919-2.791-3.844-1.054-0.687-2.325-1.132-3.73-1.315 0.616-0.486 1.145-1.126 1.425-1.491 0.932-1.219 1.382-2.278 1.524-3.003 3.57 1.437 6.048 4.548 6.048 8.146-0.003 1.428-0.392 2.828-1.124 4.053v-1.055c-0.002-0.372-0.141-0.729-0.391-1.005s-0.592-0.449-0.962-0.487z">
            </path>
            <path fill="#617c5f" style="fill: var(--color1, #617c5f)"
                d="M13.354 17.874c0.099 0 0.195-0.039 0.265-0.11s0.11-0.166 0.11-0.265c0-0.298-0.118-0.584-0.329-0.795s-0.497-0.329-0.795-0.329c-0.298 0-0.584 0.119-0.795 0.329s-0.329 0.497-0.329 0.795c0 0.099 0.039 0.195 0.11 0.265s0.166 0.11 0.265 0.11c0.099 0 0.195-0.039 0.265-0.11s0.11-0.166 0.11-0.265c0-0.099 0.039-0.195 0.11-0.265s0.166-0.11 0.265-0.11c0.099 0 0.195 0.039 0.265 0.11s0.11 0.166 0.11 0.265c0 0.099 0.040 0.195 0.11 0.265s0.166 0.11 0.265 0.11z">
            </path>
            <path fill="#617c5f" style="fill: var(--color1, #617c5f)"
                d="M19.35 16.375c-0.298 0-0.584 0.119-0.795 0.33s-0.329 0.497-0.33 0.795c0 0.099 0.039 0.195 0.11 0.265s0.166 0.11 0.265 0.11c0.099 0 0.195-0.039 0.265-0.11s0.11-0.166 0.11-0.265c0-0.099 0.039-0.195 0.11-0.265s0.166-0.11 0.265-0.11c0.099 0 0.195 0.039 0.265 0.11s0.11 0.166 0.11 0.265c0 0.099 0.039 0.195 0.11 0.265s0.166 0.11 0.265 0.11c0.099 0 0.195-0.039 0.265-0.11s0.11-0.166 0.11-0.265c-0-0.298-0.119-0.584-0.33-0.795s-0.497-0.329-0.795-0.33z">
            </path>
            <path fill="#617c5f" style="fill: var(--color1, #617c5f)"
                d="M18.751 20.154c-0.091-0.040-0.194-0.042-0.287-0.006s-0.167 0.108-0.207 0.199c-0.006 0.013-0.577 1.275-2.28 1.275-1.68 0-2.255-1.219-2.281-1.276-0.040-0.090-0.115-0.161-0.207-0.197s-0.195-0.033-0.286 0.007c-0.091 0.040-0.162 0.114-0.198 0.206s-0.034 0.195 0.005 0.286c0.031 0.070 0.779 1.724 2.967 1.724s2.936-1.653 2.967-1.724c0.040-0.091 0.042-0.194 0.006-0.287s-0.108-0.167-0.199-0.207z">
            </path>
            <path fill="#617c5f" style="fill: var(--color1, #617c5f)"
                d="M15.227 19.373h1.499c0.099 0 0.195-0.039 0.265-0.11s0.11-0.166 0.11-0.265c0-0.099-0.039-0.195-0.11-0.265s-0.166-0.11-0.265-0.11h-1.124v-1.124c0-0.099-0.039-0.195-0.11-0.265s-0.166-0.11-0.265-0.11c-0.099 0-0.195 0.039-0.265 0.11s-0.11 0.166-0.11 0.265v1.499c0 0.099 0.039 0.195 0.11 0.265s0.166 0.11 0.265 0.11z">
            </path>
        </symbol>
        <symbol id="feedback" viewBox="0 0 32 32">
            <path fill="#617c5f" style="fill: var(--color1, #617c5f)"
                d="M6.327 8.581l-0.297 1.687c-0.025 0.139 0.033 0.28 0.147 0.364s0.267 0.096 0.394 0.031l1.565-0.801 1.565 0.801c0.054 0.028 0.113 0.041 0.172 0.041 0.078 0 0.156-0.024 0.222-0.072 0.115-0.084 0.172-0.224 0.147-0.364l-0.297-1.687 1.261-1.196c0.104-0.098 0.142-0.247 0.098-0.382s-0.162-0.234-0.304-0.254l-1.748-0.247-0.781-1.539c-0.064-0.125-0.193-0.205-0.335-0.205s-0.271 0.079-0.335 0.205l-0.781 1.539-1.748 0.247c-0.142 0.020-0.26 0.119-0.304 0.254s-0.006 0.284 0.098 0.382l1.261 1.196zM7.32 7.209c0.121-0.017 0.227-0.092 0.282-0.201l0.534-1.053 0.534 1.053c0.055 0.109 0.16 0.184 0.282 0.201l1.179 0.167-0.848 0.805c-0.090 0.086-0.132 0.21-0.11 0.333l0.202 1.145-1.066-0.546c-0.054-0.028-0.113-0.041-0.172-0.041s-0.118 0.014-0.172 0.041l-1.066 0.546 0.202-1.145c0.021-0.122-0.020-0.247-0.11-0.333l-0.848-0.805 1.179-0.167z">
            </path>
            <path fill="#617c5f" style="fill: var(--color1, #617c5f)"
                d="M13.447 8.581l-0.297 1.687c-0.025 0.139 0.033 0.28 0.147 0.364s0.267 0.096 0.394 0.031l1.565-0.801 1.565 0.801c0.054 0.028 0.113 0.041 0.172 0.041 0.078 0 0.156-0.024 0.222-0.072 0.115-0.084 0.172-0.224 0.147-0.364l-0.297-1.687 1.261-1.196c0.104-0.098 0.142-0.247 0.098-0.382s-0.162-0.234-0.304-0.254l-1.748-0.247-0.781-1.539c-0.064-0.125-0.193-0.205-0.335-0.205s-0.271 0.079-0.335 0.205l-0.781 1.539-1.748 0.247c-0.142 0.020-0.26 0.119-0.304 0.254s-0.006 0.284 0.098 0.382l1.261 1.196zM14.441 7.209c0.121-0.017 0.227-0.092 0.282-0.201l0.534-1.053 0.534 1.053c0.055 0.109 0.16 0.184 0.282 0.201l1.179 0.167-0.848 0.805c-0.090 0.086-0.132 0.21-0.11 0.333l0.202 1.145-1.066-0.546c-0.054-0.028-0.113-0.041-0.172-0.041s-0.118 0.014-0.172 0.041l-1.066 0.546 0.202-1.145c0.022-0.122-0.020-0.247-0.11-0.333l-0.848-0.805 1.179-0.167z">
            </path>
            <path fill="#617c5f" style="fill: var(--color1, #617c5f)"
                d="M22.339 23.945c-0.181-0.1-0.409-0.036-0.51 0.143l-1.359 2.411h-6.151c-0.207 0-0.375 0.166-0.375 0.372s0.168 0.372 0.375 0.372h6.371c0.136 0 0.261-0.073 0.327-0.19l1.466-2.602c0.101-0.179 0.036-0.406-0.144-0.506z">
            </path>
            <path fill="#617c5f" style="fill: var(--color1, #617c5f)"
                d="M10.197 11.633c-1.757 0-3.186 1.417-3.186 3.159s1.429 3.159 3.186 3.159c1.757 0 3.186-1.417 3.186-3.159s-1.429-3.159-3.186-3.159zM10.197 17.208c-1.343 0-2.436-1.084-2.436-2.416s1.093-2.416 2.436-2.416c1.343 0 2.436 1.084 2.436 2.416s-1.093 2.416-2.436 2.416z">
            </path>
            <path fill="#617c5f" style="fill: var(--color1, #617c5f)"
                d="M12.258 23.898h-4.497c-0.207 0-0.375 0.166-0.375 0.372s0.168 0.372 0.375 0.372h4.497c0.517 0 0.937 0.417 0.937 0.929s-0.42 0.929-0.937 0.929h-5.622c-0.517 0-0.937-0.417-0.937-0.929v-5.204c0-0.512 0.42-0.929 0.937-0.929h7.495c0.207 0 0.375-0.166 0.375-0.372s-0.168-0.372-0.375-0.372h-7.495c-0.93 0-1.686 0.75-1.686 1.673v5.204c0 0.922 0.757 1.673 1.687 1.673h5.622c0.93 0 1.687-0.75 1.687-1.673s-0.757-1.673-1.687-1.673z">
            </path>
            <path fill="#617c5f" style="fill: var(--color1, #617c5f)"
                d="M22.002 13.863c1.757 0 3.186-1.417 3.186-3.159s-1.429-3.159-3.186-3.159c-1.757 0-3.186 1.417-3.186 3.159s1.429 3.159 3.186 3.159zM22.002 8.288c1.343 0 2.436 1.084 2.436 2.416s-1.093 2.416-2.436 2.416-2.436-1.084-2.436-2.416c0-1.332 1.093-2.416 2.436-2.416z">
            </path>
            <path fill="#617c5f" style="fill: var(--color1, #617c5f)"
                d="M25.75 14.606h-7.683c-0.93 0-1.686 0.75-1.686 1.673v2.788c0 0.205 0.168 0.372 0.375 0.372s0.375-0.166 0.375-0.372v-2.788c0-0.512 0.42-0.929 0.937-0.929h7.683c0.517 0 0.937 0.417 0.937 0.929v5.575c0 0.512-0.42 0.929-0.937 0.929h-5.059c-0.517 0-0.937-0.417-0.937-0.929s0.42-0.929 0.937-0.929h3.56c0.207 0 0.375-0.166 0.375-0.372v-2.602c0-0.205-0.168-0.372-0.375-0.372s-0.375 0.166-0.375 0.372v2.23h-8.995c-0.132 0-0.253 0.068-0.321 0.18l-1.69 2.788c-0.107 0.176-0.049 0.404 0.128 0.51 0.060 0.036 0.127 0.053 0.193 0.053 0.127 0 0.251-0.064 0.322-0.18l1.581-2.607h4.195c-0.18 0.266-0.285 0.586-0.285 0.929 0 0.922 0.757 1.673 1.686 1.673h4.31v3.345c0 0.205 0.168 0.372 0.375 0.372s0.375-0.166 0.375-0.372v-3.345c0.93 0 1.686-0.75 1.686-1.673v-5.575c0-0.922-0.757-1.673-1.686-1.673z">
            </path>
        </symbol>
        <symbol id="gift" viewBox="0 0 32 32">
            <path fill="#617c5f" style="fill: var(--color1, #617c5f)"
                d="M27.696 19.117c-0.358-0.031-0.717 0.046-1.030 0.222v-8.228c0.491 0 0.889-0.398 0.889-0.889v-2.222c0-0.736-0.597-1.333-1.333-1.333h-4.116c0.602-0.73 0.729-1.741 0.326-2.597s-1.264-1.402-2.21-1.403h-0.444c-0.797 0.001-1.544 0.39-2 1.044-0.456-0.653-1.203-1.043-2-1.044h-0.444c-0.946 0.001-1.807 0.547-2.21 1.403s-0.276 1.867 0.326 2.597h-4.116c-0.736 0-1.333 0.597-1.333 1.333v2.222c0 0.491 0.398 0.889 0.889 0.889v11.456c-1.078 0.709-2.077 1.53-2.981 2.452-0.861 0.861-3.053 2.616-3.075 2.634-0.192 0.153-0.223 0.433-0.069 0.625s0.433 0.223 0.625 0.069c0.092-0.073 2.252-1.804 3.148-2.7 3.469-3.47 6.041-3.87 7.675-3.87 0.617-0.004 1.215 0.21 1.689 0.604 0.233 0.187 0.523 0.288 0.822 0.284h4.527c0.492-0.014 0.911 0.355 0.961 0.844 0.012 0.243-0.076 0.481-0.244 0.657s-0.401 0.276-0.645 0.276h-4.889c-0.245 0-0.444 0.199-0.444 0.444s0.199 0.444 0.444 0.444h4.889c0.487 0 0.953-0.2 1.289-0.553s0.512-0.829 0.486-1.316c0-0.006-0.003-0.012-0.003-0.018l3.867-3.238c0.182-0.153 0.418-0.227 0.655-0.205s0.455 0.136 0.608 0.318c0.292 0.355 0.272 0.873-0.047 1.205l-5.545 5.644c-0.228 0.234-0.537 0.372-0.863 0.386h-8.029c-0.624-0-1.243 0.119-1.822 0.353l-1.413 0.568c-0.228 0.092-0.338 0.35-0.247 0.578s0.35 0.338 0.578 0.247l1.413-0.568c0.474-0.191 0.98-0.289 1.491-0.288h8.044c0.561-0.016 1.093-0.249 1.486-0.648l5.544-5.648c0.483-0.493 0.64-1.221 0.401-1.869s-0.829-1.101-1.517-1.162zM26.667 8v2.222h-6.222v-2.667h5.778c0.245-0 0.445 0.199 0.445 0.444zM18.667 21.778h-1.778v-10.667h1.778l0 10.667zM19.111 10.222h-3.111v-2.667h3.556v2.667h-0.444zM19.778 3.556h0.444c0.859 0 1.556 0.696 1.556 1.556s-0.696 1.556-1.556 1.556h-2v-1.556c0-0.859 0.696-1.556 1.556-1.556zM13.778 5.111c0-0.859 0.696-1.556 1.556-1.556h0.444c0.859 0 1.556 0.696 1.556 1.556v1.556h-2c-0.859 0-1.556-0.696-1.556-1.556zM8.889 8c0-0.245 0.199-0.444 0.444-0.444h5.778v2.667h-6.222v-2.222zM14.211 20.889c-1.552-0.004-3.079 0.393-4.433 1.152v-10.929h6.222v10.263c-0.543-0.317-1.16-0.485-1.789-0.486zM21.249 21.778h-1.693v-10.667h6.222v8.929l-3.002 2.513c-0.353-0.491-0.922-0.78-1.527-0.776z">
            </path>
            <path fill="#617c5f" style="fill: var(--color1, #617c5f)"
                d="M28.642 4.519l-1.333 0.889c-0.204 0.136-0.259 0.412-0.123 0.616s0.412 0.259 0.616 0.123l1.333-0.889c0.132-0.088 0.207-0.24 0.197-0.399s-0.104-0.299-0.247-0.37c-0.142-0.070-0.311-0.059-0.444 0.029z">
            </path>
            <path fill="#617c5f" style="fill: var(--color1, #617c5f)"
                d="M26.222 5.333c0.204-0 0.381-0.139 0.431-0.336l0.444-1.778c0.051-0.234-0.094-0.467-0.326-0.525s-0.47 0.079-0.535 0.309l-0.444 1.778c-0.029 0.114-0.011 0.236 0.050 0.337s0.159 0.174 0.273 0.202c0.035 0.009 0.071 0.013 0.108 0.013z">
            </path>
            <path fill="#617c5f" style="fill: var(--color1, #617c5f)"
                d="M6.297 4.643c-0.065 0.098-0.089 0.218-0.066 0.334s0.091 0.217 0.189 0.283l1.333 0.889c0.204 0.136 0.48 0.081 0.616-0.123s0.081-0.48-0.123-0.616l-1.333-0.889c-0.098-0.065-0.218-0.089-0.334-0.066s-0.217 0.091-0.283 0.189z">
            </path>
            <path fill="#617c5f" style="fill: var(--color1, #617c5f)"
                d="M8.781 2.68c-0.114 0.029-0.213 0.101-0.274 0.203s-0.079 0.222-0.050 0.337l0.444 1.778c0.050 0.198 0.227 0.336 0.431 0.336 0.036 0 0.073-0.004 0.108-0.013 0.114-0.029 0.213-0.101 0.274-0.202s0.079-0.222 0.050-0.337l-0.444-1.778c-0.060-0.238-0.301-0.383-0.539-0.323z">
            </path>
        </symbol>
        <symbol id="your-skin" viewBox="0 0 32 32">
            <path fill="#e4ece0" style="fill: var(--color2, #e4ece0)"
                d="M20.738 5.173c-0.538 0-6.829-0.85-7.631 7.649s8.259 13.793 13.238 8.41 2.019-15.476-5.607-16.059h-0z">
            </path>
            <path fill="#899f87" style="fill: var(--color3, #899f87)"
                d="M7.346 31.935c-0.008 0.030-0.039 0.049-0.069 0.041s-0.049-0.039-0.041-0.069c0.002-0.009 0.753-3.024 2.634-5.065 1.331-1.445 1.256-2.356 1.185-3.225-0.028-0.344-0.056-0.682 0.001-1.046 0.049-0.315 0.188-0.638 0.381-0.94 0.269-0.424 0.644-0.808 1.022-1.076 0.384-0.272 0.774-0.424 1.066-0.379 0.035 0.006 0.069 0.014 0.101 0.025-0.081-0.284-0.179-0.576-0.297-0.87-0.328-0.817-0.471-1.267-0.478-1.58-0.007-0.326 0.129-0.498 0.358-0.759 0.101-0.115 0.31-0.301 0.579-0.541 0.919-0.819 2.539-2.262 2.768-3.453 0.138-0.717 0.12-1.481-0.001-2.229-0.14-0.867-0.419-1.712-0.755-2.438-0.065-0.14-0.128-0.277-0.19-0.411-0.089-0.014-0.18-0.033-0.273-0.058-0.554-0.15-0.352-0.612-0.223-0.825-0.223 0.043-0.711 0.175-1.182 0.559-0.333 0.272-0.61 0.423-0.834 0.456-0.24 0.035-0.419-0.060-0.542-0.282-0.129-0.235-0.257-0.543-0.274-0.841-0.013-0.228 0.039-0.451 0.202-0.634 0.047-0.053 0.109-0.108 0.182-0.16 0.063-0.045 0.135-0.087 0.215-0.125-0.020-0.017-0.039-0.034-0.057-0.051-0.326-0.297-0.536-0.626-0.622-0.878-0.023-0.066-0.029-0.138-0.020-0.213 0.020-0.171 0.117-0.358 0.268-0.521 0.149-0.161 0.351-0.3 0.583-0.379 0.17-0.058 0.356-0.084 0.549-0.062 0.147 0.017 0.277 0.041 0.394 0.076-0.012-0.144-0.008-0.278 0.012-0.403 0.062-0.396 0.274-0.696 0.582-0.899 0.127-0.084 0.284-0.147 0.454-0.187 0.266-0.063 0.566-0.070 0.831-0.014 0.271 0.057 0.507 0.182 0.639 0.382 0.042 0.064 0.073 0.135 0.092 0.213 0.016 0.066 0.026 0.131 0.032 0.194 0.116-0.015 0.232-0.010 0.345 0.013 0.091 0.019 0.18 0.044 0.266 0.076 0.24 0.088 0.455 0.224 0.596 0.41 0.144 0.189 0.21 0.428 0.15 0.716-0.012 0.056-0.028 0.114-0.050 0.173-0.116 0.318-0.368 0.615-0.668 0.876-0.063 0.055-0.129 0.108-0.195 0.16 0.104 0.093 0.19 0.21 0.254 0.332 0.085 0.164 0.129 0.341 0.123 0.49-0.010 0.231-0.077 0.467-0.174 0.672-0.105 0.22-0.247 0.407-0.393 0.516-0.153 0.114-0.397 0.204-0.693 0.234-0.135 0.014-0.281 0.015-0.435 0l0.161 0.347c0.34 0.734 0.622 1.589 0.764 2.467 0.123 0.76 0.141 1.538 0 2.268-0.236 1.229-1.874 2.688-2.804 3.516-0.266 0.237-0.473 0.421-0.569 0.531-0.211 0.24-0.336 0.398-0.33 0.681 0.006 0.297 0.148 0.737 0.47 1.54 0.134 0.334 0.242 0.664 0.329 0.985 0.378 0.264 0.653 0.877 0.873 1.367 0.158 0.352 0.286 0.637 0.375 0.653 0.067 0.012 0.162 0.005 0.295-0.006 0.39-0.030 1.098-0.085 2.478 0.226 1.85 0.418 3.527 0.219 3.532 0.219 0.031-0.004 0.059 0.019 0.063 0.050 0.003 0.024-0.010 0.046-0.029 0.056-0.059 0.037-1.274 0.767-3.057 0.767-0.741 0-1.32-0.1-1.795-0.182-0.673-0.116-1.13-0.195-1.531 0.11-0.369 0.281-0.63 0.41-0.797 0.366-0.181-0.047-0.246-0.268-0.214-0.685 0.035-0.445 0.036-1.143-0.097-1.966-0.046-0.288-0.109-0.592-0.193-0.906-0.047-0.028-0.099-0.047-0.158-0.056-0.262-0.041-0.623 0.104-0.984 0.359-0.367 0.26-0.731 0.633-0.992 1.044-0.184 0.29-0.318 0.598-0.364 0.897-0.055 0.35-0.027 0.682 0 1.020 0.073 0.893 0.15 1.828-1.215 3.31-1.86 2.019-2.605 5.008-2.607 5.016v-0zM14.533 21.687c-0.191-0.426-0.424-0.946-0.721-1.228 0.066 0.267 0.118 0.526 0.158 0.773 0.134 0.834 0.133 1.541 0.098 1.992-0.027 0.353 0.012 0.537 0.129 0.567 0.13 0.034 0.36-0.087 0.701-0.347 0.441-0.335 0.917-0.253 1.619-0.132 0.47 0.081 1.043 0.18 1.776 0.18 1.326 0 2.328-0.409 2.763-0.624-0.553 0.037-1.873 0.076-3.296-0.245-1.363-0.308-2.060-0.254-2.444-0.224-0.142 0.011-0.243 0.019-0.323 0.005-0.148-0.026-0.287-0.336-0.459-0.719zM15.553 7.797c-0.114-0.247-0.224-0.485-0.331-0.718-0.106 0.17-0.291 0.557 0.145 0.675 0.063 0.017 0.125 0.031 0.186 0.043h0zM15.036 6.672l-0.089-0.195c-0.262-0.575-0.5-1.103-0.727-1.616-0.121-0.274-0.196-0.526-0.229-0.755-0.121-0.040-0.26-0.068-0.42-0.086-0.175-0.020-0.345 0.003-0.5 0.056-0.213 0.073-0.399 0.201-0.536 0.349-0.135 0.146-0.222 0.309-0.239 0.457-0.007 0.058-0.002 0.114 0.015 0.164 0.081 0.237 0.28 0.548 0.591 0.831 0.031 0.029 0.064 0.057 0.098 0.085 0.163-0.061 0.35-0.101 0.554-0.1 0.362 0.003 0.775 0.134 1.188 0.503 0.099 0.088 0.197 0.19 0.295 0.307v-0zM15.049 6.43l0.047 0.102c-0.066-0.341-0.167-0.834-0.284-1.305-0.103-0.41-0.223-0.692-0.412-0.88-0.081-0.080-0.175-0.144-0.286-0.194 0.036 0.202 0.104 0.423 0.211 0.663 0.233 0.528 0.471 1.054 0.726 1.615l-0-0zM15.297 6.971c0.123 0.269 0.253 0.551 0.39 0.847 0.171 0.022 0.333 0.022 0.48 0.008 0.275-0.028 0.498-0.11 0.636-0.212 0.132-0.098 0.261-0.269 0.358-0.474 0.092-0.193 0.155-0.414 0.164-0.628 0.006-0.129-0.034-0.286-0.11-0.433-0.061-0.118-0.144-0.229-0.245-0.315-0.347 0.256-0.718 0.463-0.994 0.596-0.228 0.11-0.389 0.222-0.498 0.321-0.032 0.029-0.059 0.055-0.082 0.080-0.017 0.036-0.031 0.068-0.044 0.097-0.022 0.048-0.039 0.086-0.055 0.113l-0 0zM14.1 3.597c-0.020 0.13-0.023 0.272-0.006 0.425 0.153 0.059 0.278 0.139 0.385 0.245 0.206 0.205 0.335 0.503 0.443 0.933 0.084 0.335 0.159 0.681 0.219 0.975 0.002-0.425 0.035-0.962 0.156-1.46 0.122-0.502 0.356-0.88 0.637-1.124 0.177-0.154 0.373-0.255 0.572-0.301-0.005-0.062-0.014-0.124-0.029-0.189-0.015-0.065-0.041-0.124-0.076-0.176-0.114-0.173-0.325-0.281-0.568-0.333-0.249-0.053-0.531-0.046-0.782 0.013-0.158 0.037-0.303 0.095-0.418 0.171-0.282 0.186-0.476 0.46-0.533 0.822l0-0zM16.623 3.383c-0.002 0.476-0.274 0.898-0.65 1.482-0.069 0.107-0.142 0.22-0.213 0.334-0.377 0.599-0.459 1.201-0.474 1.522 0.003-0.004 0.007-0.008 0.010-0.013 0.151-0.323 0.446-0.891 0.91-1.129 0.133-0.069 0.262-0.095 0.382-0.090 0.141 0.006 0.269 0.056 0.382 0.133 0.073-0.056 0.144-0.113 0.213-0.173 0.287-0.249 0.528-0.532 0.636-0.829 0.020-0.055 0.035-0.107 0.046-0.158 0.053-0.253-0.005-0.461-0.129-0.625-0.127-0.167-0.324-0.291-0.544-0.372-0.081-0.030-0.165-0.053-0.251-0.071-0.103-0.022-0.21-0.025-0.317-0.010v0zM15.878 4.804c0.358-0.556 0.619-0.96 0.631-1.398-0.173 0.044-0.345 0.135-0.501 0.271-0.264 0.23-0.485 0.588-0.602 1.066-0.115 0.472-0.149 0.98-0.153 1.391 0.069-0.298 0.192-0.647 0.41-0.994 0.076-0.121 0.147-0.231 0.214-0.335zM15.927 6.258c0.263-0.127 0.614-0.323 0.946-0.564-0.088-0.054-0.185-0.088-0.29-0.092-0.102-0.004-0.211 0.019-0.326 0.078-0.325 0.168-0.566 0.518-0.727 0.814 0.104-0.076 0.234-0.157 0.397-0.235l0-0zM14.99 6.95c-0.231-0.071-0.63-0.199-1.172-0.393-0.327-0.117-0.607-0.282-0.839-0.466-0.093 0.040-0.176 0.087-0.247 0.138-0.066 0.047-0.121 0.096-0.163 0.143-0.14 0.157-0.184 0.351-0.173 0.552 0.016 0.278 0.137 0.569 0.261 0.793 0.097 0.177 0.238 0.252 0.426 0.225 0.204-0.030 0.462-0.173 0.779-0.432 0.425-0.347 0.867-0.497 1.129-0.56v0zM13.856 6.451c0.546 0.196 0.946 0.324 1.174 0.394-0.121-0.156-0.243-0.286-0.364-0.395-0.389-0.348-0.775-0.472-1.113-0.475-0.163-0.001-0.314 0.026-0.449 0.070 0.212 0.16 0.464 0.303 0.752 0.406z">
            </path>
            <path fill="#899f87" style="fill: var(--color3, #899f87)"
                d="M14.096 4.046c0.009 0.030-0.007 0.061-0.037 0.071s-0.061-0.007-0.071-0.037c-0-0.001-0.147-0.446-0.084-1.077-0.020-0.068-0.143-0.482-0.38-1.023-0.003-0.008-0.006-0.014-0.007-0.017-0.128-0.307-0.115-0.642 0.050-0.952 0.162-0.305 0.471-0.585 0.935-0.788 0.017-0.007 0.031-0.013 0.044-0.019 0.122-0.051 0.244-0.092 0.364-0.124 0.392-0.103 0.76-0.104 1.050-0.031 0.299 0.075 0.519 0.23 0.605 0.436 0.009 0.021 0.017 0.044 0.023 0.067 0.035 0.135 0.070 0.251 0.099 0.35 0.082 0.278 0.126 0.43 0.027 0.48-0.060 0.030-0.121-0.019-0.214-0.095-0.134-0.11-0.356-0.29-0.692-0.352-0.007 0.011-0.014 0.022-0.020 0.033-0.163 0.293-0.305 0.369-0.543 0.496-0.123 0.066-0.273 0.146-0.469 0.283-0.523 0.364-0.741 1.197-0.757 1.259-0.063 0.611 0.078 1.037 0.078 1.038h-0zM13.905 2.639c-0.006-0.085-0.015-0.174-0.024-0.263-0.053-0.54-0.111-1.125 0.366-1.488 0.326-0.248 0.618-0.444 0.89-0.558 0.28-0.118 0.538-0.15 0.787-0.065 0.274 0.093 0.43 0.173 0.515 0.225-0.083-0.151-0.265-0.267-0.508-0.329-0.273-0.069-0.621-0.067-0.994 0.031-0.114 0.030-0.231 0.069-0.349 0.119-0.016 0.007-0.030 0.013-0.042 0.018-0.439 0.192-0.729 0.453-0.88 0.737-0.148 0.279-0.16 0.579-0.045 0.855l0.007 0.016c0.121 0.276 0.213 0.521 0.277 0.704l-0-0zM13.994 2.365c0.009 0.095 0.019 0.188 0.025 0.279 0.119-0.306 0.34-0.743 0.691-0.987 0.199-0.139 0.354-0.222 0.481-0.29 0.219-0.118 0.35-0.188 0.497-0.452 0.014-0.025 0.028-0.047 0.044-0.069 0.002-0.003 0.003-0.005 0.006-0.008 0.159-0.22 0.39-0.286 0.556-0.303-0.085-0.043-0.214-0.099-0.403-0.164-0.221-0.075-0.453-0.045-0.707 0.062-0.262 0.11-0.547 0.302-0.866 0.544-0.427 0.324-0.372 0.877-0.322 1.387h-0zM16.495 0.649c-0.006 0.001-0.013 0.001-0.019-0-0.035-0.005-0.365-0.042-0.591 0.189 0.332 0.075 0.55 0.253 0.685 0.364 0.059 0.048 0.087 0.084 0.092 0.082 0.015-0.007-0.020-0.127-0.085-0.347-0.024-0.083-0.052-0.178-0.082-0.286v0z">
            </path>
            <path fill="#899f87" style="fill: var(--color3, #899f87)"
                d="M14.061 4.024c0.016 0.027 0.008 0.061-0.018 0.078s-0.061 0.008-0.078-0.018c-0.001-0.002-0.237-0.382-0.479-0.605-0.004-0.002-0.008-0.005-0.012-0.009 0 0-0.010-0.009-0.028-0.027-0.037-0.031-0.073-0.057-0.109-0.078-0.035-0.018-0.077-0.035-0.125-0.046-0.052-0.011-0.182 0.023-0.347 0.067-0.318 0.084-0.762 0.202-1.146 0.112-0.188-0.044-0.296-0.114-0.338-0.188-0.025-0.045-0.029-0.090-0.015-0.134 0.013-0.040 0.042-0.077 0.084-0.108 0.102-0.076 0.294-0.121 0.525-0.086 0.26 0.040 0.501 0.081 0.719 0.121 0.197 0.036 0.374 0.071 0.528 0.102-0.096-0.109-0.208-0.246-0.315-0.4-0.038 0.010-0.074-0.012-0.15-0.057-0.054-0.032-0.135-0.081-0.264-0.144-0.059-0.028-0.127-0.058-0.203-0.091-0.355-0.155-0.856-0.373-1.173-0.796-0.141-0.188-0.392-0.306-0.644-0.379-0.088 0.072-0.416 0.332-0.734 0.429-0.349 0.107-0.654 0.066-0.692 0.060-0.004-0-0.009-0.001-0.013-0.003-0.030-0.010-0.045-0.042-0.035-0.072 0-0 0.058-0.175 0.156-0.288 0.066-0.077 0.148-0.128 0.28-0.211 0.061-0.038 0.132-0.083 0.216-0.138 0.014-0.015 0.056-0.055 0.131-0.101 0.039-0.036 0.066-0.068 0.093-0.101 0.060-0.072 0.122-0.147 0.297-0.262 0.163-0.107 0.355-0.228 0.592-0.299 0.239-0.071 0.52-0.091 0.86 0.008 0.327 0.095 0.689 0.346 0.98 0.631 0.311 0.305 0.544 0.653 0.571 0.897 0.020 0.184 0.004 0.35-0.028 0.487-0.039 0.168-0.103 0.296-0.15 0.362 0.204 0.295 0.428 0.525 0.517 0.613 0.029 0.025 0.044 0.043 0.044 0.043 0.001 0.001 0.002 0.003 0.003 0.004 0.262 0.241 0.502 0.626 0.503 0.628l-0-0zM12.905 3.258c-0.073-0.014-0.151-0.029-0.232-0.044-0.211-0.039-0.45-0.080-0.715-0.12-0.201-0.031-0.36 0.004-0.441 0.064-0.023 0.017-0.038 0.035-0.043 0.052-0.005 0.014-0.003 0.029 0.006 0.044 0.028 0.049 0.111 0.098 0.265 0.134 0.357 0.084 0.784-0.030 1.091-0.111 0.024-0.006 0.047-0.013 0.070-0.018h0zM12.798 2.641c-0.109-0.176-0.204-0.368-0.261-0.563-0.099-0.338-0.243-0.589-0.48-0.769-0.24-0.182-0.578-0.295-1.063-0.356-0.623-0.079-0.97 0.046-1.137 0.143-0.005 0.004-0.010 0.009-0.015 0.014 0.147 0.013 0.382 0.042 0.623 0.109 0.006 0.001 0.011 0.002 0.016 0.005 0.28 0.079 0.565 0.21 0.726 0.425 0.299 0.398 0.784 0.61 1.128 0.76 0.077 0.034 0.147 0.064 0.207 0.093 0.123 0.060 0.203 0.106 0.257 0.139zM12.645 2.047c0.060 0.205 0.165 0.407 0.282 0.589 0.034-0.057 0.077-0.156 0.107-0.287 0.029-0.126 0.044-0.28 0.025-0.45-0.024-0.219-0.244-0.541-0.538-0.829-0.279-0.274-0.624-0.513-0.932-0.603-0.315-0.091-0.576-0.073-0.796-0.008-0.222 0.066-0.405 0.183-0.562 0.286-0.094 0.062-0.152 0.111-0.196 0.154 0.215-0.069 0.53-0.113 0.972-0.057 0.505 0.064 0.86 0.184 1.116 0.378 0.259 0.196 0.415 0.466 0.521 0.827v-0zM10.335 1.302c-0.294-0.069-0.563-0.084-0.633-0.087-0.083 0.055-0.151 0.098-0.21 0.134-0.123 0.077-0.199 0.124-0.254 0.188-0.048 0.056-0.085 0.131-0.108 0.185 0.108 0.008 0.328 0.012 0.574-0.063s0.502-0.257 0.631-0.357z">
            </path>
            <path fill="#899f87" style="fill: var(--color3, #899f87)"
                d="M16.731 11.25c0.008 0.030-0.010 0.061-0.040 0.069s-0.061-0.010-0.069-0.040c-0-0.002-0.143-0.529-0.497-0.934-0.091-0.024-0.601-0.138-1.093 0.207-0.015 0.010-0.058 0.041-0.1 0.070-0.489 0.345-0.507 0.358-1.225 0.050-0.679-0.291-1.083 0.145-1.105 0.169-0.003 0.003-0.006 0.006-0.009 0.008l-0 0-0.001 0-0.001 0.001-0.002 0.001-0.001 0c-0.006 0.004-0.012 0.006-0.018 0.007l-0.003 0.001h-0.001c-0.005 0.001-0.010 0.001-0.015 0h-0l-0.003-0.001c-0.002-0-0.003-0.001-0.005-0.001l-0.001-0-0.001-0c-0.002-0.001-0.004-0.001-0.006-0.002l-0.002-0.001c-0.008-0.004-0.014-0.010-0.020-0.016l-0-0-0-0.001-0.001-0.001-0.001-0.002-0-0.001c-0.003-0.006-0.006-0.012-0.007-0.018l-0.001-0.003v-0.001c-0-0.003-0.001-0.006-0.001-0.009-0-0.031-0.005-0.901 0.332-1.334 0.256-0.33 0.525-0.379 0.92-0.45 0.134-0.024 0.284-0.052 0.456-0.095 0.598-0.151 0.838-0.024 1.173 0.154 0.044 0.023 0.089 0.047 0.136 0.071 0.399 0.202 0.654 1.010 0.686 1.117 0.376 0.428 0.525 0.98 0.525 0.982l-0 0zM15.988 10.206c-0.105-0.095-0.225-0.176-0.36-0.233-0.441-0.185-0.594-0.154-0.827-0.107-0.16 0.032-0.354 0.071-0.688 0.061-0.409-0.012-0.708 0.030-0.922 0.115-0.206 0.082-0.331 0.203-0.4 0.352-0.045 0.097-0.078 0.173-0.104 0.234 0.2-0.13 0.567-0.273 1.065-0.060 0.66 0.283 0.676 0.271 1.115-0.039 0.021-0.015 0.044-0.031 0.101-0.071 0.391-0.274 0.794-0.28 1.021-0.254l-0 0zM15.671 9.869c0.132 0.056 0.25 0.132 0.355 0.221-0.101-0.27-0.298-0.707-0.557-0.839-0.049-0.025-0.094-0.049-0.138-0.072-0.313-0.166-0.537-0.284-1.093-0.144-0.172 0.043-0.326 0.071-0.464 0.096-0.369 0.067-0.62 0.112-0.85 0.409-0.189 0.243-0.262 0.642-0.29 0.926 0.016-0.036 0.034-0.076 0.054-0.12 0.081-0.175 0.226-0.317 0.461-0.41 0.228-0.090 0.541-0.135 0.967-0.123 0.321 0.010 0.509-0.028 0.663-0.059 0.254-0.051 0.421-0.085 0.893 0.113l-0 0z">
            </path>
            <path fill="#899f87" style="fill: var(--color3, #899f87)"
                d="M16.745 12.348c-0.018 0.026-0.053 0.032-0.079 0.015s-0.032-0.053-0.015-0.079c0.001-0.001 0.286-0.406 0.427-1.643-0.031-0.080-0.184-0.499-0.265-1.148-0.046-0.363-0.065-0.631-0.012-0.888 0.053-0.258 0.177-0.502 0.418-0.814 0.392-0.509 0.891-0.645 1.262-0.746 0.085-0.023 0.163-0.044 0.229-0.067 0.354-0.123 0.962-0.119 1.016-0.118 0.026-0.001 0.050 0.015 0.058 0.041 0.005 0.018 0.001 0.036-0.009 0.049-0.027 0.040-0.378 0.571-0.51 1.12-0.093 0.385-0.304 0.512-0.513 0.637-0.115 0.069-0.23 0.138-0.317 0.253-0.122 0.161-0.183 0.321-0.25 0.497-0.068 0.179-0.142 0.372-0.288 0.599-0.252 0.391-0.602 0.569-0.708 0.616-0.145 1.251-0.443 1.673-0.443 1.675l-0-0zM17.215 10.412c-0.004 0.044-0.008 0.087-0.012 0.129 0.135-0.069 0.398-0.235 0.599-0.545 0.14-0.218 0.212-0.405 0.277-0.578 0.070-0.184 0.134-0.352 0.265-0.525 0.101-0.133 0.225-0.207 0.349-0.282 0.189-0.114 0.379-0.228 0.461-0.567 0.1-0.415 0.32-0.819 0.442-1.022-0.25 0.093-0.788 0.331-1.392 0.819-0.817 0.661-0.861 1.144-0.987 2.548l-0.002 0.024zM17.106 10.367c0.129-1.431 0.176-1.925 1.028-2.614 0.504-0.408 0.966-0.645 1.258-0.771-0.205 0.012-0.462 0.040-0.644 0.103-0.071 0.024-0.15 0.046-0.236 0.070-0.356 0.097-0.833 0.228-1.202 0.707-0.229 0.298-0.348 0.527-0.397 0.767-0.050 0.242-0.031 0.499 0.013 0.851 0.049 0.389 0.124 0.693 0.181 0.887h-0z">
            </path>
            <path fill="#899f87" style="fill: var(--color3, #899f87)"
                d="M6.391 7.678c-0.008 0.011-0.074 0.104 0.029 0.193 0.074 0.064 0.184 0.114 0.302 0.122 0.097 0.006 0.199-0.015 0.291-0.080 0.056-0.040 0.168-0.152 0.313-0.298 0.421-0.424 1.117-1.124 1.651-1.239 0.472-0.101 1.096-0.126 1.458-0.131-0.352-0.123-1-0.294-1.667-0.188-0.417 0.066-0.822 0.262-1.187 0.51-0.497 0.338-0.917 0.773-1.188 1.11l-0.001 0.001v-0zM6.346 7.957c-0.175-0.152-0.065-0.319-0.045-0.347 0.001-0.001 0.002-0.003 0.003-0.004 0.276-0.343 0.705-0.787 1.213-1.132 0.377-0.256 0.797-0.459 1.233-0.528 1.011-0.161 1.977 0.293 2.002 0.304 0.020 0.009 0.033 0.029 0.033 0.052-0 0.031-0.026 0.056-0.057 0.056-0.003 0-1.033-0.020-1.728 0.129-0.501 0.107-1.182 0.793-1.594 1.208-0.149 0.15-0.264 0.266-0.328 0.311-0.116 0.082-0.243 0.109-0.364 0.101-0.144-0.010-0.278-0.071-0.369-0.149v-0z">
            </path>
            <path fill="#899f87" style="fill: var(--color3, #899f87)"
                d="M10.030 7.88c0.031 0.004 0.053 0.032 0.049 0.063s-0.032 0.053-0.063 0.049c-0.002-0-0.869-0.111-1.209 0.328-0.122 0.158-0.233 0.362-0.325 0.564-0.134 0.292-0.229 0.571-0.266 0.691 0.146-0.017 0.514-0.092 1.088-0.433 0.759-0.45 1.046-1.171 1.047-1.173 0.008-0.021 0.029-0.035 0.053-0.035l0.731 0.005c0.005-0 0.010 0 0.015 0.001 0.031 0.006 0.051 0.036 0.045 0.066-0 0.002-0.124 0.688-1.030 1.286-0.549 0.363-1.179 0.442-1.59 0.442-0.13 0-0.239-0.008-0.315-0.017-0.048-0.006-0.087-0.015-0.116-0.024-0.018 0-0.036-0.009-0.047-0.025-0.007-0.010-0.010-0.021-0.010-0.032 0-0.001 0-0.001 0-0.002 0-0.007 0.002-0.015 0.005-0.021 0.024-0.091 0.13-0.431 0.288-0.775 0.096-0.208 0.211-0.421 0.338-0.586 0.38-0.491 1.309-0.372 1.312-0.372v-0zM8.529 9.621c0.015 0 0.030 0 0.045 0 0.396 0 1.002-0.075 1.528-0.423 0.699-0.462 0.908-0.968 0.963-1.147l-0.625-0.004c-0.070 0.154-0.387 0.782-1.078 1.192-0.35 0.208-0.63 0.32-0.832 0.381h-0z">
            </path>
            <path fill="#899f87" style="fill: var(--color3, #899f87)"
                d="M4.716 3.479c0.026-0.018 0.061-0.011 0.079 0.015s0.011 0.061-0.015 0.079c-0.004 0.003-1.446 0.954-1.466 4.064-0.010 1.563 0.113 2.454 0.289 2.99 0.172 0.525 0.395 0.705 0.593 0.85 0.099 0.072 0.191 0.137 0.279 0.198 0.303 0.212 0.557 0.39 0.644 0.568 0.028 0.058 0.045 0.175 0.067 0.337 0.071 0.504 0.206 1.467 0.913 2.235 0.359 0.389 0.742 0.763 1.123 1.134 0.619 0.603 1.233 1.202 1.736 1.86 0.077 0.1 0.156 0.19 0.236 0.27 0.337 0.332 0.706 0.49 1.063 0.509s0.702-0.1 0.992-0.322c0.066-0.051 0.129-0.106 0.189-0.167 0.236-0.24 0.403-0.514 0.476-0.778 0.043-0.154 0.054-0.304 0.028-0.44-0.025-0.134-0.086-0.255-0.187-0.355-0.098-0.096-0.234-0.173-0.412-0.223-0.463-0.129-0.91-0.184-1.306-0.154-0.372 0.028-0.699 0.132-0.95 0.32-0.195 0.145-0.406 0.198-0.592 0.181-0.115-0.010-0.221-0.047-0.306-0.105-0.087-0.059-0.153-0.14-0.188-0.237-0.040-0.111-0.037-0.241 0.022-0.382 0.217-0.512 0.506-0.668 1.258-1.074 0.047-0.025 0.096-0.052 0.147-0.079 0.854-0.462 1.213-0.579 1.214-0.579 0.030-0.010 0.062 0.006 0.071 0.036 0.005 0.014 0.003 0.028-0.002 0.041h0c-0 0.001-0.124 0.273-0.441 0.907-0.179 0.358-0.526 0.718-0.798 0.966 0.171-0.058 0.358-0.093 0.556-0.108 0.409-0.031 0.869 0.025 1.345 0.158 0.198 0.055 0.35 0.142 0.461 0.251 0.118 0.117 0.19 0.259 0.219 0.415 0.029 0.154 0.017 0.321-0.030 0.491-0.078 0.282-0.255 0.573-0.505 0.827-0.064 0.065-0.131 0.124-0.201 0.178-0.311 0.238-0.682 0.365-1.066 0.345s-0.778-0.188-1.136-0.541c-0.085-0.083-0.167-0.177-0.247-0.282-0.498-0.652-1.109-1.248-1.725-1.848-0.383-0.373-0.767-0.748-1.127-1.139-0.731-0.794-0.87-1.78-0.942-2.296-0.021-0.151-0.037-0.26-0.057-0.303-0.074-0.152-0.317-0.322-0.607-0.525-0.092-0.065-0.189-0.132-0.281-0.2-0.212-0.155-0.451-0.348-0.634-0.906-0.179-0.546-0.304-1.448-0.294-3.026 0.020-3.171 1.51-4.154 1.515-4.157l0-0zM9.019 16.377l0.012-0.009c0.104-0.080 0.851-0.666 1.139-1.241 0.193-0.387 0.315-0.64 0.38-0.777-0.168 0.069-0.51 0.221-1.068 0.523-0.051 0.027-0.1 0.054-0.147 0.079-0.727 0.392-1.007 0.543-1.208 1.018-0.047 0.112-0.050 0.214-0.019 0.3 0.026 0.074 0.077 0.136 0.145 0.182 0.069 0.047 0.156 0.078 0.252 0.086 0.16 0.014 0.344-0.032 0.514-0.16v0z">
            </path>
            <path fill="#899f87" style="fill: var(--color3, #899f87)"
                d="M8.426 14.976c0.004 0.021-0.004 0.044-0.023 0.057-0 0-0.142 0.101-0.172 0.334-0.012 0.094-0.017 0.173-0.021 0.24-0.007 0.117-0.013 0.201-0.049 0.287-0.010 0.023-0.023 0.044-0.040 0.063-0.037 0.041-0.088 0.068-0.148 0.078-0.057 0.009-0.122 0.002-0.187-0.025-0.045-0.019-0.090-0.047-0.134-0.087-0.107-0.096-0.278-0.35-0.364-0.622-0.061-0.194-0.081-0.399-0.007-0.57 0.103-0.236 0.232-0.264 0.36-0.29 0.048-0.010 0.096-0.020 0.141-0.048l-0.033-0.055c-0.106-0.179-0.229-0.386-0.416-0.616-0.066 0.091-0.137 0.158-0.329 0.146-0.218-0.013-0.466-0.034-0.665-0.18s-0.341-0.415-0.339-0.917c0.002-0.378 0.016-0.768 0.033-1.102-0.032 0.072-0.069 0.146-0.113 0.221-0.172 0.291-0.367 0.456-0.555 0.546-0.19 0.090-0.372 0.105-0.517 0.097-0.299-0.016-0.359-0.088-0.359-0.089-0.018-0.020-0.019-0.050-0.004-0.071l0.246-0.406c-0.025-0.115-0.109-0.623 0.249-0.953 0.39-0.359 1.135-0.307 1.169-0.305h0.002c0.029 0.002 0.051 0.026 0.052 0.054 0 0.004 0.001 0.009 0.001 0.016 0.003 0.053 0.009 0.218-0.032 0.437-0.025 0.393-0.056 0.989-0.059 1.555-0.002 0.458 0.12 0.698 0.293 0.825s0.402 0.147 0.604 0.159c0.147 0.009 0.195-0.049 0.247-0.123-0.144-0.168-0.231-0.347-0.263-0.523-0.026-0.141-0.016-0.28 0.029-0.407s0.124-0.244 0.236-0.341c0.14-0.12 0.331-0.21 0.572-0.254 0.323-0.059 0.575-0.052 0.758 0 0.111 0.031 0.199 0.079 0.262 0.139 0.066 0.062 0.106 0.137 0.121 0.22 0.012 0.066 0.008 0.135-0.012 0.207-0.053 0.188-0.13 0.347-0.291 0.472-0.158 0.121-0.394 0.207-0.767 0.249-0.313 0.036-0.429 0.137-0.503 0.233 0.202 0.246 0.333 0.466 0.445 0.655l0.018 0.030 0.001-0.002c0.091-0.142 0.172-0.247 0.348-0.31 0.167-0.059 0.418-0.077 0.849-0.046 0.85 0.060 1.609 0.241 1.612 0.241 0.031 0.007 0.049 0.038 0.042 0.068-0.005 0.019-0.018 0.034-0.035 0.040-0.040 0.017-0.526 0.226-1.102 0.313-0.229 0.035-0.434 0.125-0.617 0.206-0.198 0.088-0.373 0.165-0.537 0.157l0 0zM8.119 15.352c0.028-0.225 0.149-0.352 0.198-0.395-0.042-0.013-0.083-0.033-0.124-0.062-0.148-0.103-0.249-0.24-0.352-0.406-0.057 0.035-0.117 0.048-0.177 0.060-0.099 0.021-0.2 0.042-0.279 0.224-0.061 0.142-0.043 0.32 0.011 0.491 0.080 0.253 0.236 0.486 0.332 0.572 0.034 0.030 0.069 0.052 0.102 0.066 0.045 0.019 0.088 0.024 0.125 0.018 0.034-0.005 0.062-0.020 0.082-0.042 0.008-0.009 0.015-0.019 0.019-0.031 0.029-0.069 0.034-0.145 0.040-0.25 0.004-0.067 0.009-0.146 0.022-0.247l0 0zM7.96 14.367c-0.011 0.017-0.022 0.032-0.033 0.046 0.1 0.163 0.195 0.296 0.33 0.39 0.178 0.124 0.395 0.028 0.659-0.088 0.189-0.084 0.401-0.177 0.645-0.214 0.376-0.057 0.713-0.167 0.905-0.238-0.273-0.056-0.821-0.157-1.413-0.199-0.414-0.029-0.651-0.014-0.803 0.040-0.143 0.051-0.212 0.141-0.291 0.264zM7.106 13.086c0.027 0.149 0.1 0.302 0.22 0.448 0.087-0.108 0.225-0.218 0.565-0.257 0.35-0.040 0.569-0.117 0.711-0.226 0.138-0.106 0.204-0.246 0.251-0.413 0.015-0.055 0.019-0.108 0.010-0.156-0.011-0.059-0.040-0.112-0.088-0.158-0.051-0.048-0.122-0.086-0.215-0.112-0.168-0.047-0.403-0.053-0.708 0.002-0.22 0.040-0.393 0.121-0.518 0.229-0.097 0.084-0.165 0.183-0.203 0.292s-0.047 0.228-0.024 0.35zM6.079 10.924c0.003-0.043 0.006-0.079 0.008-0.106-0.177-0.006-0.727 0.001-1.028 0.278-0.293 0.27-0.246 0.682-0.221 0.819 0.187-0.017 0.869-0.104 1.059-0.495 0.112-0.232 0.161-0.393 0.182-0.496zM5.824 11.831c0.063-0.107 0.112-0.214 0.149-0.315-0.252 0.421-0.99 0.502-1.147 0.514l-0.215 0.355c0.036 0.012 0.107 0.026 0.245 0.034 0.13 0.007 0.293-0.006 0.462-0.087 0.17-0.081 0.348-0.232 0.506-0.501v-0z">
            </path>
            <path fill="#899f87" style="fill: var(--color3, #899f87)"
                d="M6.204 10.776c0.008 0.030-0.011 0.061-0.041 0.069s-0.061-0.011-0.069-0.041c-0-0.002-0.14-0.559-0.508-1.012-0.071-0.028-0.456-0.158-1.010 0.012-0.229 0.070-0.432 0.169-0.599 0.25-0.146 0.071-0.266 0.129-0.36 0.147-0.126 0.025-0.206-0.011-0.233-0.15-0.061-0.311 0.107-0.407 0.462-0.61 0.040-0.023 0.082-0.047 0.131-0.075 0.238-0.139 0.523-0.219 0.816-0.183 0.248 0.030 0.5 0.143 0.732 0.372 0.049 0.049 0.095 0.1 0.138 0.152 0.001 0.001 0.002 0.003 0.003 0.004 0.39 0.476 0.537 1.063 0.537 1.065l0 0zM5.446 9.635l-0.001-0.001c-0.212-0.21-0.441-0.312-0.665-0.34-0.267-0.033-0.528 0.041-0.747 0.169-0.044 0.026-0.089 0.052-0.131 0.076-0.307 0.175-0.452 0.258-0.406 0.49 0.011 0.057 0.046 0.072 0.1 0.061 0.080-0.016 0.194-0.071 0.332-0.138 0.171-0.083 0.378-0.183 0.615-0.256 0.394-0.121 0.712-0.098 0.903-0.059h0z">
            </path>
            <path fill="#899f87" style="fill: var(--color3, #899f87)"
                d="M27.839 25.503c0.013 0.029 0 0.062-0.029 0.075s-0.062 0-0.075-0.029c-0.002-0.005-0.74-1.674-1.876-2.656-0.578-0.5-0.924-0.842-1.104-1.226-0.179-0.382-0.192-0.798-0.104-1.44-0.099-0.122-0.645-0.802-0.92-1.279-0.161-0.279-0.183-0.638-0.065-1.028 0.112-0.368 0.349-0.765 0.713-1.149 0.708-0.747 1.94-1.204 2.045-1.242 0.005-0.002 0.008-0.003 0.008-0.003 0.029-0.010 0.062 0.005 0.072 0.035 0.002 0.005 0.003 0.011 0.003 0.016 0 0.002 0.041 0.785-0.266 1.379-0.080 0.154-0.151 0.266-0.211 0.361-0.161 0.252-0.244 0.382-0.223 0.962 0.029 0.782-0.922 1.828-1.043 1.958-0.086 0.624-0.075 1.023 0.093 1.383 0.171 0.366 0.509 0.699 1.075 1.189 1.155 0.998 1.903 2.69 1.905 2.695h0zM24.671 20.069c0.042-0.459-0.037-0.849-0.109-1.203-0.118-0.583-0.218-1.077 0.236-1.642 0.437-0.544 0.763-0.855 0.982-1.063 0.149-0.142 0.247-0.236 0.292-0.318 0.012-0.023 0.026-0.044 0.040-0.065-0.434 0.191-1.168 0.562-1.65 1.071-0.351 0.371-0.58 0.752-0.687 1.104-0.109 0.36-0.090 0.688 0.055 0.939 0.231 0.4 0.659 0.95 0.84 1.177h-0zM24.673 18.844c0.072 0.353 0.15 0.741 0.114 1.199 0.273-0.313 0.932-1.136 0.909-1.761-0.023-0.614 0.067-0.755 0.24-1.026 0.059-0.092 0.128-0.2 0.206-0.352 0.234-0.452 0.256-1.023 0.256-1.236-0.065 0.037-0.16 0.108-0.226 0.229-0.054 0.099-0.157 0.197-0.313 0.346-0.217 0.207-0.54 0.514-0.972 1.052-0.421 0.524-0.326 0.993-0.213 1.549h-0z">
            </path>
            <path fill="#899f87" style="fill: var(--color3, #899f87)"
                d="M25.871 22.753c0.023 0.021 0.026 0.056 0.005 0.080s-0.056 0.026-0.080 0.005c-0.004-0.003-1.31-1.144-2.509-2.073-0.5-0.387-0.944-0.622-1.336-0.731-0.070 0.026-0.377 0.162-0.537 0.615-0.101 0.288-0.401 0.495-0.773 0.652-0.363 0.153-0.796 0.259-1.179 0.344-0.75 0.168-1.392 0.124-1.425 0.121-0.007-0-0.014-0.002-0.020-0.005-0.029-0.013-0.042-0.046-0.029-0.075 0.056-0.128 0.124-0.251 0.269-0.444 0.142-0.189 0.36-0.447 0.716-0.846 0.158-0.177 0.275-0.321 0.37-0.438 0.339-0.418 0.404-0.497 1.063-0.546 0.789-0.058 1.482 0.445 1.568 0.51 0.407 0.113 0.867 0.354 1.381 0.752 1.201 0.931 2.511 2.074 2.515 2.078v-0zM21.781 19.993c-0.453-0.088-0.83 0-1.138 0.213-0.425 0.295-0.478 0.32-0.768 0.457-0.136 0.064-0.325 0.154-0.629 0.307-0.643 0.325-0.95 0.568-1.079 0.688 0.221 0.006 0.716 0 1.271-0.124 0.377-0.085 0.805-0.189 1.159-0.338 0.345-0.145 0.621-0.333 0.71-0.585 0.123-0.35 0.331-0.531 0.473-0.618v0zM20.579 20.114c0.303-0.21 0.667-0.308 1.096-0.252-0.272-0.158-0.745-0.373-1.26-0.335-0.611 0.045-0.671 0.118-0.984 0.504-0.095 0.117-0.212 0.261-0.374 0.442-0.354 0.396-0.569 0.651-0.709 0.838-0.034 0.046-0.064 0.087-0.090 0.126 0.182-0.14 0.476-0.334 0.937-0.567 0.307-0.155 0.496-0.244 0.632-0.309 0.283-0.134 0.335-0.159 0.752-0.448v0z">
            </path>
            <path fill="#899f87" style="fill: var(--color3, #899f87)"
                d="M23.433 20.735c0.024 0.020 0.028 0.056 0.008 0.080s-0.056 0.028-0.080 0.008c-0.002-0.002-0.81-0.651-1.666-2.403-0.296-0.606-0.527-1.108-0.728-1.542l-0.084-0.182c-0.001-0.002-0.002-0.004-0.003-0.006-0.326-0.706-0.58-1.238-0.943-1.816-0.307-0.488-0.543-0.901-0.695-1.291-0.153-0.394-0.219-0.765-0.184-1.164 0.006-0.063 0.018-0.123 0.035-0.178 0.089-0.277 0.316-0.454 0.586-0.556 0.264-0.099 0.57-0.126 0.827-0.103 0.114 0.010 0.218 0.030 0.305 0.058l0.003 0.001 0.003 0.001h0c0.469 0.15 0.919 0.294 0.956 0.969 0.166-0.059 0.334-0.084 0.494-0.073 0.311 0.020 0.607 0.19 0.835 0.424 0.248 0.254 0.416 0.584 0.438 0.879 0.021 0.291-0.126 0.643-0.384 0.957-0.063 0.077-0.133 0.151-0.208 0.222 0.037 0.036 0.072 0.076 0.105 0.121l0.001 0.002c0.089 0.121 0.164 0.272 0.232 0.452 0.113 0.303 0.16 0.479 0.152 0.633-0.008 0.158-0.072 0.284-0.18 0.488-0.060 0.113-0.089 0.218-0.115 0.306-0.070 0.248-0.111 0.392-0.529 0.328-0.422-0.064-1.242-0.42-1.569-0.567l0.021 0.046c0.199 0.431 0.428 0.928 0.727 1.54 0.845 1.729 1.633 2.363 1.636 2.365l-0 0zM20.034 14.814c0.209 0.333 0.382 0.65 0.553 0.992-0.075-0.439-0.14-1.122 0.015-1.746 0.12-0.486 0.352-0.86 0.63-1.115 0.135-0.125 0.282-0.221 0.432-0.289-0.023-0.633-0.442-0.767-0.878-0.907l-0.004-0.001-0.003-0.001c-0.079-0.025-0.175-0.044-0.28-0.053-0.242-0.022-0.53 0.003-0.777 0.096-0.241 0.090-0.442 0.245-0.518 0.485-0.015 0.048-0.026 0.099-0.031 0.153-0.034 0.381 0.030 0.735 0.177 1.114 0.148 0.382 0.382 0.789 0.685 1.272h0zM20.812 16.275c0.052 0.111 0.106 0.226 0.161 0.345 0.15 0.034 0.895 0.192 1.25 0.076 0.245-0.081 0.277-0.126 0.355-0.238 0.049-0.071 0.115-0.165 0.247-0.302 0.137-0.143 0.201-0.297 0.221-0.442 0.030-0.209-0.029-0.399-0.084-0.508-0.030-0.040-0.062-0.077-0.096-0.109-0.198 0.17-0.429 0.314-0.681 0.411-0.665 0.256-1.229 0.659-1.374 0.768v0zM21.778 12.731c-0 0.038-0.002 0.077-0.005 0.117-0.054 0.757-0.276 1.288-0.523 1.879-0.033 0.079-0.067 0.159-0.091 0.219-0.164 0.398-0.26 0.786-0.311 1.036 0.252-0.382 0.772-1.081 1.239-1.164 0.326-0.058 0.569-0.017 0.762 0.117 0.005 0.004 0.011 0.008 0.016 0.011 0.075-0.070 0.145-0.145 0.207-0.221 0.24-0.293 0.377-0.615 0.358-0.878-0.020-0.269-0.176-0.573-0.406-0.808-0.21-0.215-0.48-0.371-0.761-0.389-0.157-0.010-0.322 0.017-0.485 0.080v0zM21.66 12.84c0.001-0.020 0.002-0.039 0.003-0.058-0.123 0.061-0.243 0.144-0.355 0.247-0.263 0.242-0.482 0.596-0.597 1.059-0.174 0.704-0.060 1.488 0.022 1.888 0.052-0.256 0.15-0.659 0.321-1.073 0.037-0.089 0.064-0.155 0.091-0.22 0.244-0.582 0.462-1.104 0.515-1.843l0 0zM22.146 15.402c0.232-0.089 0.447-0.222 0.632-0.378-0.166-0.113-0.381-0.145-0.672-0.094-0.429 0.076-0.922 0.746-1.165 1.115 0.258-0.175 0.703-0.45 1.205-0.643h-0zM23.183 15.634c-0.005-0.014-0.010-0.027-0.016-0.040 0 0.044-0.002 0.090-0.009 0.136-0.024 0.166-0.096 0.341-0.252 0.504-0.126 0.132-0.189 0.221-0.236 0.289-0.094 0.135-0.132 0.189-0.412 0.281-0.222 0.073-0.577 0.048-0.866 0.008 0.384 0.164 0.929 0.38 1.241 0.427 0.32 0.049 0.35-0.060 0.403-0.247 0.027-0.095 0.058-0.207 0.124-0.329 0.101-0.191 0.16-0.307 0.167-0.441 0.007-0.137-0.038-0.301-0.145-0.588v0z">
            </path>
            <path fill="#899f87" style="fill: var(--color3, #899f87)"
                d="M20.798 16.249c0.003 0.022-0.007 0.043-0.024 0.055 0.058 0.062 0.094 0.104 0.103 0.114 0.017 0.017 0.021 0.044 0.009 0.066-0.003 0.005-0.006 0.009-0.010 0.013-0.008 0.008-0.040 0.043-0.091 0.098-0.088 0.108-0.221 0.31-0.309 0.62l-0.001 0.003c-0.074 0.26-0.156 0.47-0.276 0.631-0.123 0.166-0.284 0.279-0.513 0.34-0.333 0.089-0.644 0.102-0.775 0.104-0.173 0.011-0.366-0.072-0.744-0.235l-0.038-0.016c-0.707-0.304-0.52-0.959-0.341-1.587 0.043-0.15 0.085-0.299 0.113-0.436 0.014-0.066 0.034-0.128 0.061-0.184 0.007-0.016 0.015-0.031 0.024-0.046-0.154-0.057-0.305-0.124-0.451-0.204-0.168-0.093-0.287-0.205-0.367-0.33v-0c-0.107-0.167-0.142-0.354-0.127-0.54 0.015-0.184 0.079-0.368 0.17-0.533 0.122-0.222 0.296-0.412 0.468-0.523l0.003-0.002 0.009-0.006 0-0c0.263-0.162 0.734-0.228 1.203-0.151s0.939 0.296 1.202 0.704c0.001 0.001 0.002 0.002 0.002 0.003 0.002 0.003 0.006 0.009 0.011 0.018 0.506 0.82 0.688 2.021 0.688 2.024v0zM20.675 16.201c-0.045-0.258-0.236-1.228-0.662-1.917l-0.012-0.019c-0.243-0.378-0.684-0.582-1.125-0.654-0.443-0.073-0.884-0.014-1.125 0.135l-0.009 0.006-0.002 0.001c-0.157 0.101-0.316 0.276-0.43 0.482-0.084 0.152-0.142 0.32-0.156 0.487-0.013 0.164 0.017 0.326 0.109 0.471 0.070 0.109 0.176 0.209 0.326 0.292 0.148 0.082 0.303 0.149 0.461 0.206 0.122-0.158 0.299-0.262 0.501-0.322 0.252-0.075 0.542-0.078 0.805-0.024 0.125 0.026 0.244 0.064 0.351 0.114 0.379 0.178 0.75 0.518 0.97 0.742v0zM18.163 15.73c0.421 0.137 0.855 0.203 1.228 0.259 0.268 0.040 0.506 0.076 0.691 0.131 0.233 0.069 0.407 0.131 0.531 0.179-0.211-0.217-0.58-0.562-0.956-0.738-0.098-0.046-0.209-0.082-0.325-0.106-0.246-0.050-0.517-0.047-0.75 0.022-0.166 0.049-0.313 0.132-0.418 0.253zM19.374 16.101c-0.389-0.059-0.841-0.127-1.281-0.275-0.011 0.018-0.021 0.037-0.030 0.056-0.023 0.049-0.040 0.102-0.052 0.159-0.030 0.145-0.072 0.294-0.115 0.444-0.166 0.581-0.338 1.188 0.277 1.452l0.038 0.016c0.322 0.138 0.503 0.217 0.642 0.226 0.008 0 0.024 0 0.049 0 0.006-0 0.012-0.001 0.018-0.002 0.142-0.016 0.272-0.123 0.527-0.336v-0l0.063-0.052c0.418-0.346 0.613-0.599 0.761-0.791 0.067-0.088 0.125-0.163 0.19-0.229 0.102-0.105 0.184-0.191 0.241-0.252 0.014-0.017 0.027-0.032 0.038-0.044-0.1-0.045-0.316-0.134-0.69-0.245-0.176-0.052-0.411-0.088-0.676-0.128l-0 0zM19.52 17.93c-0.116 0.096-0.207 0.172-0.288 0.229 0.126-0.014 0.273-0.039 0.425-0.079 0.202-0.054 0.343-0.153 0.451-0.298 0.11-0.149 0.188-0.347 0.258-0.595l0.001-0.002c0.023-0.081 0.049-0.155 0.077-0.223-0.027 0.033-0.054 0.069-0.084 0.107-0.151 0.197-0.351 0.456-0.778 0.81l-0.062 0.052-0-0z">
            </path>
            <path fill="#899f87" style="fill: var(--color3, #899f87)"
                d="M20.41 17.129c-0.019-0.024-0.015-0.060 0.009-0.079s0.060-0.015 0.079 0.009c0.001 0.001 0.235 0.303 0.611 0.221 0.356-0.078 0.298-0.366 0.298-0.367-0.006-0.031 0.015-0.060 0.045-0.066s0.060 0.015 0.066 0.045c0 0.001 0.079 0.396-0.386 0.498-0.445 0.098-0.722-0.26-0.723-0.261v-0z">
            </path>
        </symbol>
        <symbol id="star-half-empty" viewBox="0 0 32 32">
            <path
                d="M16 6.52l2.76 5.58 0.46 1 1 0.15 6.16 0.89-4.38 4.3-0.75 0.73 0.18 1 1.050 6.13-5.51-2.89-0.97-0.41-0.93 0.49-5.51 2.85 5.51-2.265-0.67-3.275-4.4-2.36-4.42-4.35 3.98 5.12 5.98 5.28 0.46-1v-16.97zM16 2l-4.55 9.22-10.17 1.47 7.36 7.18-1.74 10.13 9.1-4.78 9.1 4.78-1.74-10.13 7.36-7.17-10.17-1.48-4.55-9.22z">
            </path>
        </symbol>
        <symbol id="star-empty" viewBox="0 0 32 32">
            <path
                d="M16 6.52l2.76 5.58 0.46 1 1 0.15 6.16 0.89-4.38 4.3-0.75 0.73 0.18 1 1.050 6.13-5.51-2.89-0.97-0.41-0.93 0.49-5.51 2.85 1-6.13 0.18-1-0.74-0.77-4.42-4.35 7.16-1.040 0.46-1 2.8-5.53zM16 2l-4.55 9.22-10.17 1.47 7.36 7.18-1.74 10.13 9.1-4.78 9.1 4.78-1.74-10.13 7.36-7.17-10.17-1.48-4.55-9.22z">
            </path>
        </symbol>
        <symbol id="star" viewBox="0 0 32 32">
            <path
                d="M16 2l-4.55 9.22-10.17 1.47 7.36 7.18-1.74 10.13 9.1-4.78 9.1 4.78-1.74-10.13 7.36-7.17-10.17-1.48-4.55-9.22z">
            </path>
        </symbol>
        <symbol id="serum" viewBox="0 0 32 32">
            <path fill="#899f87" style="fill: var(--color3, #899f87)"
                d="M8.698 13.517c-1.704 0-3.090 1.386-3.090 3.089l0 11.606c0 1.704 1.386 3.089 3.089 3.089h7.307c1.704 0 3.089-1.386 3.089-3.089l0-11.606c0-1.704-1.386-3.089-3.089-3.089h-7.307zM16.005 32h-7.307c-2.089 0-3.788-1.699-3.788-3.788v-11.606c0-2.089 1.699-3.788 3.788-3.788h7.307c2.089 0 3.788 1.699 3.788 3.788v11.606c0 2.089-1.699 3.788-3.788 3.788z">
            </path>
            <path fill="#899f87" style="fill: var(--color3, #899f87)"
                d="M9.031 19.866c-0.465 0-0.844 0.378-0.844 0.843l0 3.399c0 0.465 0.378 0.843 0.843 0.843h6.642c0.465 0 0.843-0.378 0.843-0.843l0-3.399c0-0.465-0.379-0.843-0.844-0.843h-6.642zM15.672 25.651h-6.642c-0.85 0-1.542-0.692-1.542-1.542l0-3.399c0-0.85 0.692-1.542 1.542-1.542h6.642c0.85 0 1.542 0.692 1.542 1.542l0 3.399c0 0.85-0.692 1.542-1.542 1.542z">
            </path>
            <path fill="#899f87" style="fill: var(--color3, #899f87)"
                d="M15.294 13.517c-0.193 0-0.349-0.156-0.349-0.349v-6.322h-5.187v6.322c0 0.193-0.156 0.349-0.349 0.349s-0.349-0.156-0.349-0.349l0-6.671c0-0.193 0.156-0.349 0.349-0.349h5.886c0.194 0 0.349 0.157 0.349 0.349l0 6.671c0 0.193-0.156 0.349-0.349 0.349z">
            </path>
            <path fill="#899f87" style="fill: var(--color3, #899f87)"
                d="M15.294 9.070h-5.886c-0.193 0-0.35-0.156-0.35-0.349s0.156-0.349 0.349-0.349h5.886c0.193 0 0.349 0.156 0.349 0.349s-0.156 0.349-0.349 0.349z">
            </path>
            <path fill="#899f87" style="fill: var(--color3, #899f87)"
                d="M15.294 11.293h-5.886c-0.193 0-0.35-0.156-0.35-0.349s0.156-0.349 0.349-0.349h5.886c0.193 0 0.349 0.156 0.349 0.349s-0.156 0.349-0.349 0.349z">
            </path>
            <path fill="#899f87" style="fill: var(--color3, #899f87)"
                d="M19.269 7.64c-0.154 0.001-0.295-0.103-0.338-0.258l-1.291-4.819c-0.162-0.603-0.13-1.162 0.092-1.616 0.216-0.441 0.601-0.755 1.084-0.885s0.974-0.050 1.382 0.224c0.419 0.282 0.726 0.75 0.888 1.354l1.291 4.819c0.050 0.186-0.060 0.378-0.247 0.427s-0.378-0.060-0.428-0.247l-1.291-4.819c-0.117-0.438-0.326-0.768-0.603-0.954-0.241-0.162-0.521-0.207-0.811-0.129s-0.51 0.256-0.638 0.517c-0.146 0.3-0.162 0.69-0.044 1.128l1.291 4.819c0.050 0.186-0.061 0.378-0.247 0.428-0.030 0.008-0.060 0.012-0.090 0.012z">
            </path>
            <path fill="#899f87" style="fill: var(--color3, #899f87)"
                d="M19.135 7.327v0zM22.608 6.804c-0.112 0-0.228 0.015-0.343 0.045l-3.040 0.814c-0.549 0.148-0.92 0.619-0.81 1.029l0.569 2.125 5.066-1.358-0.569-2.125c-0.087-0.324-0.453-0.531-0.873-0.531zM18.738 11.594c-0.061 0-0.122-0.015-0.175-0.047-0.081-0.047-0.139-0.122-0.163-0.212l-0.66-2.463c-0.211-0.79 0.374-1.635 1.305-1.884l3.039-0.814c0.932-0.25 1.861 0.19 2.073 0.98l0.659 2.462c0.050 0.186-0.060 0.378-0.247 0.428l-5.741 1.539c-0.030 0.008-0.061 0.012-0.090 0.012z">
            </path>
            <path fill="#899f87" style="fill: var(--color3, #899f87)"
                d="M25.261 24.46c-0.108 0-0.211-0.049-0.278-0.138l-1.807-2.375c-0.025-0.034-0.044-0.072-0.057-0.112l-3.235-10.888c-0.055-0.185 0.050-0.379 0.235-0.434s0.38 0.050 0.434 0.235l3.217 10.826 1.252 1.645 0.261-2.051-2.627-10.984c-0.044-0.188 0.071-0.376 0.258-0.421s0.376 0.071 0.421 0.259l2.642 11.046c0.010 0.041 0.012 0.084 0.007 0.125l-0.378 2.961c-0.018 0.14-0.119 0.257-0.256 0.293-0.030 0.008-0.060 0.012-0.090 0.012z">
            </path>
            <path fill="#899f87" style="fill: var(--color3, #899f87)"
                d="M25.258 27.558c-0.019 0.038-0.039 0.076-0.058 0.116-0.371 0.737-1.143 2.271-1.065 2.693h0c0.101 0.541 0.575 0.934 1.127 0.934 0.558 0 1.033-0.398 1.129-0.947 0.063-0.365-0.69-1.897-1.052-2.633-0.028-0.055-0.055-0.11-0.081-0.163zM25.261 32c-0.888 0-1.65-0.633-1.813-1.504h0c-0.114-0.606 0.419-1.73 1.127-3.137 0.154-0.306 0.287-0.572 0.365-0.749 0.056-0.127 0.181-0.209 0.32-0.209s0.264 0.082 0.319 0.209c0.087 0.199 0.225 0.478 0.384 0.803 0.712 1.448 1.209 2.515 1.113 3.061-0.155 0.884-0.919 1.525-1.817 1.525z">
            </path>
        </symbol>
        <symbol id="skin" viewBox="0 0 32 32">
            <path fill="#899f87" style="fill: var(--color3, #899f87)"
                d="M31.625 18.414h-31.25c-0.099 0-0.195-0.039-0.265-0.11s-0.11-0.166-0.11-0.265 0.040-0.195 0.11-0.265c0.070-0.070 0.166-0.11 0.265-0.11h31.25c0.099 0 0.195 0.040 0.265 0.11s0.11 0.166 0.11 0.265-0.040 0.195-0.11 0.265c-0.070 0.070-0.166 0.11-0.265 0.11z">
            </path>
            <path fill="#899f87" style="fill: var(--color3, #899f87)"
                d="M31.625 22.414h-31.25c-0.099 0-0.195-0.039-0.265-0.11s-0.11-0.166-0.11-0.265 0.040-0.195 0.11-0.265c0.070-0.070 0.166-0.11 0.265-0.11h31.25c0.099 0 0.195 0.040 0.265 0.11s0.11 0.166 0.11 0.265-0.040 0.195-0.11 0.265c-0.070 0.070-0.166 0.11-0.265 0.11z">
            </path>
            <path fill="#899f87" style="fill: var(--color3, #899f87)"
                d="M3.994 27.735c-0.297 0-0.587-0.088-0.833-0.253s-0.439-0.399-0.552-0.673c-0.114-0.274-0.143-0.576-0.085-0.867s0.201-0.558 0.411-0.768c0.21-0.21 0.477-0.353 0.768-0.411s0.593-0.028 0.867 0.085c0.274 0.114 0.508 0.306 0.673 0.552s0.253 0.537 0.253 0.833c-0 0.398-0.159 0.779-0.44 1.060s-0.663 0.439-1.060 0.44zM3.994 25.486c-0.148 0-0.293 0.044-0.417 0.126s-0.219 0.2-0.276 0.337c-0.057 0.137-0.072 0.288-0.043 0.433s0.1 0.279 0.205 0.384c0.105 0.105 0.239 0.176 0.384 0.205s0.296 0.014 0.433-0.043c0.137-0.057 0.254-0.153 0.337-0.276s0.126-0.268 0.126-0.417c0-0.199-0.079-0.39-0.22-0.53s-0.331-0.22-0.53-0.22z">
            </path>
            <path fill="#899f87" style="fill: var(--color3, #899f87)"
                d="M8 31.539c-0.297 0-0.587-0.088-0.833-0.253s-0.439-0.399-0.552-0.673c-0.114-0.274-0.143-0.576-0.085-0.867s0.201-0.558 0.41-0.768 0.477-0.353 0.768-0.411c0.291-0.058 0.593-0.028 0.867 0.085s0.508 0.306 0.673 0.552c0.165 0.247 0.253 0.537 0.253 0.833-0 0.398-0.159 0.779-0.44 1.060s-0.663 0.439-1.060 0.44zM8 29.289c-0.148 0-0.293 0.044-0.417 0.126s-0.219 0.2-0.276 0.337c-0.057 0.137-0.072 0.288-0.043 0.433s0.1 0.279 0.205 0.384c0.105 0.105 0.239 0.176 0.384 0.205s0.296 0.014 0.433-0.043 0.254-0.153 0.337-0.276c0.082-0.123 0.126-0.268 0.126-0.417-0-0.199-0.079-0.389-0.22-0.53s-0.331-0.219-0.53-0.219v-0.001z">
            </path>
            <path fill="#899f87" style="fill: var(--color3, #899f87)"
                d="M16 31.539c-0.297 0-0.587-0.088-0.833-0.253s-0.439-0.399-0.552-0.673c-0.114-0.274-0.143-0.576-0.085-0.867s0.201-0.558 0.411-0.768 0.477-0.353 0.768-0.411c0.291-0.058 0.593-0.028 0.867 0.085s0.508 0.306 0.673 0.552c0.165 0.247 0.253 0.537 0.253 0.833-0 0.398-0.159 0.779-0.44 1.060s-0.663 0.439-1.060 0.44zM16 29.289c-0.148 0-0.293 0.044-0.417 0.126s-0.219 0.2-0.276 0.337c-0.057 0.137-0.072 0.288-0.043 0.433s0.1 0.279 0.205 0.384c0.105 0.105 0.239 0.176 0.384 0.205s0.296 0.014 0.433-0.043 0.254-0.153 0.337-0.276c0.082-0.123 0.126-0.268 0.126-0.417-0-0.199-0.079-0.389-0.22-0.53s-0.331-0.219-0.53-0.219v-0.001z">
            </path>
            <path fill="#899f87" style="fill: var(--color3, #899f87)"
                d="M24 31.539c-0.297 0-0.587-0.088-0.833-0.253s-0.439-0.399-0.552-0.673c-0.113-0.274-0.143-0.576-0.085-0.867s0.201-0.558 0.41-0.768 0.477-0.353 0.768-0.411c0.291-0.058 0.593-0.028 0.867 0.085s0.508 0.306 0.673 0.552c0.165 0.247 0.253 0.537 0.253 0.833-0 0.398-0.159 0.779-0.44 1.060s-0.663 0.439-1.060 0.44zM24 29.289c-0.148 0-0.293 0.044-0.417 0.126s-0.219 0.2-0.276 0.337c-0.057 0.137-0.072 0.288-0.043 0.433s0.1 0.279 0.205 0.384c0.105 0.105 0.239 0.176 0.384 0.205s0.296 0.014 0.433-0.043 0.254-0.153 0.337-0.276c0.082-0.123 0.126-0.268 0.126-0.417-0-0.199-0.079-0.389-0.22-0.53s-0.331-0.219-0.53-0.219v-0.001z">
            </path>
            <path fill="#899f87" style="fill: var(--color3, #899f87)"
                d="M12 27.735c-0.297 0-0.587-0.088-0.833-0.253s-0.439-0.399-0.552-0.673c-0.114-0.274-0.143-0.576-0.085-0.867s0.201-0.558 0.411-0.768c0.21-0.21 0.477-0.353 0.768-0.411s0.593-0.028 0.867 0.085c0.274 0.114 0.508 0.306 0.673 0.552s0.253 0.537 0.253 0.833c-0 0.398-0.159 0.779-0.44 1.060s-0.663 0.439-1.060 0.44zM12 25.486c-0.148 0-0.293 0.044-0.417 0.126s-0.219 0.2-0.276 0.337c-0.057 0.137-0.072 0.288-0.043 0.433s0.1 0.279 0.205 0.384c0.105 0.105 0.239 0.176 0.384 0.205s0.296 0.014 0.433-0.043c0.137-0.057 0.254-0.153 0.337-0.276s0.126-0.268 0.126-0.417c0-0.199-0.079-0.39-0.22-0.53s-0.331-0.22-0.53-0.22z">
            </path>
            <path fill="#899f87" style="fill: var(--color3, #899f87)"
                d="M20.006 27.735c-0.297 0-0.587-0.088-0.833-0.253s-0.439-0.399-0.552-0.673c-0.113-0.274-0.143-0.576-0.085-0.867s0.201-0.558 0.41-0.768c0.21-0.21 0.477-0.353 0.768-0.411s0.593-0.028 0.867 0.085c0.274 0.114 0.508 0.306 0.673 0.552s0.253 0.537 0.253 0.833c-0 0.398-0.159 0.779-0.44 1.060s-0.663 0.439-1.060 0.44zM20.006 25.486c-0.148 0-0.293 0.044-0.417 0.126s-0.22 0.2-0.276 0.337c-0.057 0.137-0.072 0.288-0.043 0.433s0.1 0.279 0.205 0.384c0.105 0.105 0.239 0.176 0.384 0.205s0.296 0.014 0.433-0.043c0.137-0.057 0.254-0.153 0.337-0.276s0.126-0.268 0.126-0.417c0-0.199-0.079-0.39-0.22-0.53s-0.331-0.22-0.53-0.22z">
            </path>
            <path fill="#899f87" style="fill: var(--color3, #899f87)"
                d="M28.012 27.735c-0.297 0-0.587-0.088-0.833-0.253s-0.439-0.399-0.552-0.673c-0.113-0.274-0.143-0.576-0.085-0.867s0.201-0.558 0.41-0.768c0.21-0.21 0.477-0.353 0.768-0.411s0.593-0.028 0.867 0.085c0.274 0.114 0.508 0.306 0.673 0.552s0.253 0.537 0.253 0.833c-0 0.398-0.159 0.779-0.44 1.060s-0.663 0.439-1.060 0.44zM28.012 25.486c-0.148 0-0.293 0.044-0.417 0.126s-0.219 0.2-0.276 0.337c-0.057 0.137-0.072 0.288-0.043 0.433s0.1 0.279 0.205 0.384c0.105 0.105 0.239 0.176 0.384 0.205s0.296 0.014 0.433-0.043c0.137-0.057 0.254-0.153 0.337-0.276s0.126-0.268 0.126-0.417c0-0.199-0.079-0.39-0.22-0.53s-0.331-0.22-0.53-0.22z">
            </path>
            <path fill="#899f87" style="fill: var(--color3, #899f87)"
                d="M6.164 15.556c-0.082 0-0.162-0.027-0.227-0.077s-0.113-0.119-0.134-0.198l-0.001-0.005c-0.001-0.004-0.002-0.008-0.004-0.012-0.045-0.143-0.399-1.185-1.305-1.679-0.58-0.316-1.285-0.35-2.095-0.103-0.047 0.016-0.097 0.022-0.147 0.018s-0.098-0.018-0.142-0.041c-0.044-0.023-0.084-0.055-0.115-0.093s-0.056-0.083-0.071-0.13-0.020-0.098-0.015-0.148c0.005-0.050 0.020-0.098 0.044-0.142s0.056-0.082 0.095-0.114c0.039-0.031 0.084-0.054 0.132-0.068 0.81-0.248 1.375-0.671 1.679-1.258 0.508-0.981 0.14-2.128 0.136-2.139-0.015-0.047-0.021-0.097-0.016-0.147s0.019-0.098 0.042-0.142c0.023-0.044 0.055-0.083 0.093-0.115s0.082-0.055 0.13-0.070c0.048-0.014 0.097-0.019 0.147-0.014s0.097 0.020 0.141 0.043c0.044 0.024 0.082 0.056 0.113 0.095s0.054 0.083 0.068 0.131c0.003 0.011 0.34 1.167 1.31 1.696 0.58 0.316 1.285 0.35 2.095 0.102 0.047-0.015 0.097-0.021 0.147-0.017s0.098 0.018 0.142 0.041c0.044 0.023 0.083 0.055 0.115 0.093s0.056 0.082 0.070 0.13 0.020 0.098 0.015 0.147c-0.005 0.050-0.020 0.098-0.043 0.141s-0.056 0.082-0.095 0.114-0.084 0.054-0.131 0.068c-0.81 0.248-1.375 0.671-1.679 1.258-0.478 0.924-0.18 1.995-0.14 2.126l0.001 0.005 0.003 0.008c0.019 0.056 0.024 0.116 0.015 0.175s-0.032 0.114-0.067 0.163c-0.035 0.048-0.080 0.087-0.133 0.114s-0.111 0.041-0.171 0.041zM3.953 12.614c0.317 0.055 0.623 0.161 0.905 0.316 0.306 0.17 0.582 0.39 0.816 0.65 0.048-0.347 0.154-0.683 0.313-0.995 0.147-0.286 0.341-0.546 0.573-0.769-0.317-0.055-0.623-0.161-0.906-0.316-0.306-0.17-0.582-0.389-0.816-0.65-0.048 0.347-0.154 0.683-0.313 0.995-0.147 0.286-0.34 0.546-0.572 0.769z">
            </path>
            <path fill="#899f87" style="fill: var(--color3, #899f87)"
                d="M22.731 15.651c-0.055 0-0.109-0.012-0.159-0.035s-0.094-0.057-0.129-0.099c-0.035-0.042-0.061-0.091-0.075-0.144s-0.017-0.108-0.007-0.162c0.001-0.006 0.125-0.78-0.292-1.355-0.248-0.341-0.649-0.556-1.193-0.637-0.089-0.013-0.17-0.058-0.229-0.126s-0.091-0.155-0.091-0.245c0-0.019 0.001-0.037 0.004-0.056 0.007-0.049 0.024-0.096 0.049-0.138s0.059-0.079 0.098-0.108c0.040-0.029 0.085-0.050 0.132-0.062s0.097-0.014 0.146-0.007c0.546 0.081 0.994-0.007 1.331-0.264 0.561-0.427 0.67-1.2 0.671-1.207 0.007-0.049 0.024-0.096 0.049-0.138s0.059-0.079 0.098-0.108c0.040-0.029 0.085-0.050 0.132-0.062s0.097-0.014 0.146-0.007c0.049 0.007 0.096 0.024 0.138 0.050s0.079 0.059 0.108 0.098c0.029 0.040 0.050 0.085 0.062 0.132s0.014 0.097 0.007 0.146c-0.001 0.006-0.125 0.78 0.292 1.355 0.248 0.341 0.649 0.556 1.193 0.637 0.089 0.013 0.17 0.058 0.229 0.126s0.091 0.155 0.091 0.245c0 0.019-0.001 0.037-0.004 0.056-0.015 0.098-0.068 0.187-0.148 0.246s-0.18 0.084-0.279 0.069c-0.546-0.082-0.994 0.007-1.332 0.264-0.561 0.427-0.67 1.2-0.67 1.207-0.011 0.091-0.055 0.175-0.124 0.235s-0.157 0.094-0.249 0.094zM22.352 13.060c0.124 0.108 0.234 0.229 0.33 0.363 0.104 0.145 0.19 0.302 0.256 0.468 0.112-0.139 0.24-0.264 0.382-0.372 0.13-0.099 0.272-0.183 0.421-0.25-0.124-0.108-0.234-0.229-0.33-0.363-0.104-0.145-0.19-0.302-0.256-0.468-0.112 0.139-0.24 0.264-0.382 0.372-0.13 0.099-0.272 0.183-0.421 0.25z">
            </path>
            <path fill="#899f87" style="fill: var(--color3, #899f87)"
                d="M15.787 7.148c-0.052 0-0.104-0.011-0.152-0.032s-0.091-0.052-0.126-0.091c-0.035-0.039-0.062-0.085-0.078-0.134s-0.022-0.102-0.017-0.154v-0.003c0-0.004 0-0.008 0.001-0.013 0.009-0.144 0.052-1.193-0.584-1.943-0.407-0.48-1.023-0.753-1.829-0.811-0.095-0.007-0.183-0.049-0.248-0.118s-0.101-0.161-0.101-0.255c0-0.009 0-0.018 0.001-0.027 0.003-0.049 0.016-0.097 0.038-0.141s0.052-0.083 0.090-0.116c0.037-0.032 0.081-0.057 0.127-0.072s0.096-0.021 0.145-0.018c0.807 0.058 1.455-0.125 1.927-0.542 0.742-0.657 0.845-1.711 0.855-1.844v-0.014c0.007-0.099 0.054-0.191 0.129-0.257 0.037-0.032 0.081-0.057 0.127-0.072s0.096-0.022 0.145-0.018c0.049 0.004 0.097 0.017 0.141 0.039s0.083 0.053 0.115 0.090c0.032 0.037 0.057 0.081 0.072 0.127s0.022 0.096 0.018 0.145v0.003c0 0.004 0 0.008-0.001 0.013-0.009 0.144-0.052 1.193 0.584 1.943 0.407 0.48 1.023 0.753 1.829 0.811 0.095 0.007 0.183 0.049 0.248 0.118s0.101 0.16 0.101 0.255c0 0.009 0 0.018-0.001 0.027-0.003 0.049-0.016 0.097-0.038 0.141s-0.052 0.083-0.090 0.116-0.080 0.057-0.127 0.072c-0.047 0.015-0.096 0.022-0.145 0.018-0.807-0.057-1.455 0.125-1.927 0.542-0.742 0.657-0.845 1.711-0.855 1.844v0.014c-0.005 0.096-0.047 0.187-0.116 0.253s-0.162 0.103-0.258 0.104zM14.729 3.714c0.256 0.157 0.486 0.354 0.679 0.584 0.21 0.251 0.377 0.534 0.497 0.839 0.161-0.285 0.368-0.541 0.611-0.76 0.224-0.2 0.479-0.362 0.756-0.481-0.256-0.157-0.486-0.354-0.679-0.584-0.21-0.251-0.377-0.534-0.497-0.839-0.161 0.285-0.368 0.541-0.611 0.76-0.224 0.2-0.479 0.362-0.755 0.481h-0z">
            </path>
            <path fill="#899f87" style="fill: var(--color3, #899f87)"
                d="M6.343 5.386h-0.758c-0.099 0-0.195-0.040-0.265-0.11s-0.11-0.166-0.11-0.265 0.039-0.195 0.11-0.265c0.070-0.070 0.166-0.11 0.265-0.11h0.758c0.099 0 0.195 0.040 0.265 0.11s0.11 0.166 0.11 0.265-0.040 0.195-0.11 0.265c-0.070 0.070-0.166 0.11-0.265 0.11z">
            </path>
            <path fill="#899f87" style="fill: var(--color3, #899f87)"
                d="M7.113 6.913c-0.099 0-0.195-0.040-0.265-0.11s-0.11-0.166-0.11-0.265v-0.758c0-0.099 0.039-0.195 0.11-0.265s0.166-0.11 0.265-0.11c0.099 0 0.195 0.040 0.265 0.11s0.11 0.166 0.11 0.265v0.758c0 0.099-0.039 0.195-0.11 0.265s-0.166 0.11-0.265 0.11z">
            </path>
            <path fill="#899f87" style="fill: var(--color3, #899f87)"
                d="M8.639 5.386h-0.758c-0.099 0-0.195-0.040-0.265-0.11s-0.11-0.166-0.11-0.265 0.039-0.195 0.11-0.265c0.070-0.070 0.166-0.11 0.265-0.11h0.758c0.099 0 0.195 0.040 0.265 0.11s0.11 0.166 0.11 0.265c0 0.099-0.040 0.195-0.11 0.265s-0.166 0.11-0.265 0.11z">
            </path>
            <path fill="#899f87" style="fill: var(--color3, #899f87)"
                d="M7.112 4.617c-0.099 0-0.195-0.040-0.265-0.11s-0.11-0.166-0.11-0.265v-0.758c0-0.099 0.039-0.195 0.11-0.265s0.166-0.11 0.265-0.11c0.099 0 0.195 0.039 0.265 0.11s0.11 0.166 0.11 0.265v0.758c0 0.099-0.039 0.195-0.11 0.265s-0.166 0.11-0.265 0.11z">
            </path>
            <path fill="#899f87" style="fill: var(--color3, #899f87)"
                d="M26.926 7.958h-0.729c-0.099 0-0.195-0.039-0.265-0.11s-0.11-0.166-0.11-0.265c0-0.099 0.040-0.195 0.11-0.265s0.166-0.11 0.265-0.11h0.729c0.099 0 0.195 0.039 0.265 0.11s0.11 0.166 0.11 0.265c0 0.099-0.040 0.195-0.11 0.265s-0.166 0.11-0.265 0.11z">
            </path>
            <path fill="#899f87" style="fill: var(--color3, #899f87)"
                d="M27.665 9.426c-0.099 0-0.195-0.039-0.265-0.11s-0.11-0.166-0.11-0.265v-0.729c0-0.099 0.040-0.195 0.11-0.265s0.166-0.11 0.265-0.11 0.195 0.039 0.265 0.11c0.070 0.070 0.11 0.166 0.11 0.265v0.729c0 0.099-0.040 0.195-0.11 0.265s-0.166 0.11-0.265 0.11z">
            </path>
            <path fill="#899f87" style="fill: var(--color3, #899f87)"
                d="M29.133 7.958h-0.729c-0.099 0-0.195-0.040-0.265-0.11s-0.11-0.166-0.11-0.265 0.040-0.195 0.11-0.265c0.070-0.070 0.166-0.11 0.265-0.11h0.729c0.099 0 0.195 0.039 0.265 0.11s0.11 0.166 0.11 0.265-0.039 0.195-0.11 0.265c-0.070 0.070-0.166 0.11-0.265 0.11z">
            </path>
            <path fill="#899f87" style="fill: var(--color3, #899f87)"
                d="M27.665 7.219c-0.099 0-0.195-0.039-0.265-0.11s-0.11-0.166-0.11-0.265v-0.729c0-0.099 0.039-0.195 0.11-0.265s0.166-0.11 0.265-0.11c0.099 0 0.195 0.039 0.265 0.11s0.11 0.166 0.11 0.265v0.729c0 0.099-0.039 0.195-0.11 0.265s-0.166 0.11-0.265 0.11z">
            </path>
        </symbol>
        <symbol id="organic" viewBox="0 0 32 32">
            <path fill="#899f87" style="fill: var(--color3, #899f87)"
                d="M14.382 2.642l-2.213 1.608h-2.735c-1.178 0-2.223 0.759-2.587 1.879l-0.845 2.601-2.213 1.608c-0.953 0.693-1.352 1.92-0.988 3.041l0.845 2.601-0.845 2.601c-0.364 1.121 0.035 2.348 0.988 3.041l2.213 1.608 0.845 2.601c0.364 1.121 1.408 1.879 2.587 1.879h2.735l2.213 1.608c0.953 0.693 2.244 0.693 3.197 0l2.213-1.608h2.735c1.178 0 2.222-0.759 2.587-1.879l0.845-2.601 2.213-1.608c0.953-0.693 1.352-1.92 0.988-3.041l-0.845-2.601 0.845-2.601c0.364-1.121-0.035-2.348-0.988-3.041l-2.213-1.608-0.845-2.601c-0.364-1.121-1.408-1.879-2.587-1.879h-2.735l-2.213-1.608c-0.953-0.692-2.244-0.692-3.197 0zM14.822 3.248c0.691-0.502 1.626-0.502 2.317 0 1.048 0.762 2.311 1.679 2.311 1.679 0.064 0.046 0.141 0.071 0.22 0.071h2.857c0.854 0 1.61 0.55 1.874 1.362 0.4 1.232 0.883 2.717 0.883 2.717 0.024 0.075 0.072 0.141 0.136 0.187 0 0 1.263 0.918 2.311 1.679 0.691 0.502 0.98 1.391 0.716 2.203-0.4 1.232-0.883 2.717-0.883 2.717-0.024 0.075-0.024 0.156 0 0.231 0 0 0.482 1.485 0.883 2.717 0.264 0.812-0.025 1.701-0.716 2.203-1.048 0.762-2.311 1.679-2.311 1.679-0.064 0.046-0.112 0.112-0.136 0.187 0 0-0.483 1.485-0.883 2.717-0.264 0.812-1.020 1.362-1.874 1.362-1.296 0-2.857 0-2.857 0-0.079 0-0.156 0.025-0.22 0.072 0 0-1.263 0.918-2.311 1.679-0.691 0.502-1.626 0.502-2.316 0-1.048-0.762-2.311-1.679-2.311-1.679-0.064-0.047-0.141-0.072-0.22-0.072 0 0-1.561 0-2.857 0-0.854 0-1.61-0.55-1.874-1.362-0.4-1.232-0.883-2.717-0.883-2.717-0.024-0.075-0.072-0.141-0.136-0.187 0 0-1.263-0.918-2.311-1.679-0.691-0.502-0.98-1.391-0.716-2.203 0.4-1.232 0.883-2.717 0.883-2.717 0.024-0.075 0.024-0.156 0-0.231 0 0-0.482-1.485-0.883-2.717-0.264-0.812 0.025-1.701 0.716-2.203 1.048-0.762 2.311-1.679 2.311-1.679 0.064-0.046 0.112-0.112 0.136-0.187 0 0 0.483-1.485 0.883-2.717 0.264-0.812 1.020-1.362 1.874-1.362h2.857c0.079 0 0.156-0.025 0.22-0.071l2.311-1.679z">
            </path>
            <path fill="#899f87" style="fill: var(--color3, #899f87)"
                d="M12.226 12.579c0.62 1.871 2.437 3.133 4.619 2.574 1.638-0.42 2.717-1.573 3.414-2.815 1.015-1.809 1.21-3.795 1.21-3.795 0.013-0.137-0.049-0.27-0.163-0.347s-0.261-0.086-0.383-0.022c-1.305 0.678-2.403 0.531-3.473 0.381-0.797-0.112-1.581-0.226-2.413-0.090-1.356 0.221-2.25 1.192-2.656 2.202-0.28 0.695-0.323 1.407-0.156 1.912h0zM12.937 12.343c-0.122-0.37-0.065-0.888 0.14-1.397 0.32-0.795 1.014-1.569 2.081-1.743 0.956-0.156 1.844 0.064 2.772 0.168 0.845 0.095 1.718 0.107 2.689-0.247-0.134 0.682-0.424 1.796-1.013 2.846-0.604 1.077-1.527 2.092-2.947 2.456-1.76 0.451-3.222-0.574-3.722-2.084h-0z">
            </path>
            <path fill="#899f87" style="fill: var(--color3, #899f87)"
                d="M9.296 12.081c1.228 0.475 2.358 0.699 3.383 0.752 2.527 0.131 4.421-0.777 5.588-1.575 0.171-0.117 0.214-0.35 0.098-0.521s-0.35-0.214-0.521-0.098c-1.071 0.732-2.809 1.566-5.127 1.446-0.955-0.049-2.007-0.26-3.152-0.703-0.193-0.075-0.41 0.021-0.484 0.214s0.021 0.41 0.214 0.484z">
            </path>
            <path fill="#899f87" style="fill: var(--color3, #899f87)"
                d="M7.647 19.214l1.081-0.563v4.047c0 0.207 0.168 0.375 0.374 0.375s0.375-0.168 0.375-0.375v-4.665c0-0.131-0.068-0.252-0.18-0.32s-0.251-0.072-0.367-0.012l-1.629 0.848c-0.183 0.096-0.255 0.322-0.159 0.505s0.322 0.255 0.505 0.159z">
            </path>
            <path fill="#899f87" style="fill: var(--color3, #899f87)"
                d="M23.579 18.006l-3.39 4.257c-0.129 0.162-0.102 0.398 0.060 0.526s0.398 0.102 0.526-0.060l3.39-4.257c0.129-0.162 0.102-0.398-0.060-0.526s-0.398-0.102-0.526 0.060z">
            </path>
            <path fill="#899f87" style="fill: var(--color3, #899f87)"
                d="M20.735 17.635c-0.472 0-0.855 0.383-0.855 0.855s0.383 0.855 0.855 0.855c0.472 0 0.855-0.383 0.855-0.855s-0.383-0.855-0.855-0.855zM20.735 18.384c0.059 0 0.106 0.048 0.106 0.106s-0.048 0.106-0.106 0.106c-0.059 0-0.106-0.048-0.106-0.106s0.048-0.106 0.106-0.106z">
            </path>
            <path fill="#899f87" style="fill: var(--color3, #899f87)"
                d="M23.537 21.312c-0.472 0-0.855 0.383-0.855 0.855s0.383 0.855 0.855 0.855 0.855-0.383 0.855-0.855c0-0.472-0.383-0.855-0.855-0.855zM23.537 22.061c0.059 0 0.106 0.048 0.106 0.106s-0.048 0.106-0.106 0.106c-0.059 0-0.106-0.048-0.106-0.106s0.048-0.106 0.106-0.106z">
            </path>
            <path fill="#899f87" style="fill: var(--color3, #899f87)"
                d="M14.024 21.327v-1.923c0-0.964-0.781-1.745-1.745-1.745 0 0 0 0-0 0-0.964 0-1.745 0.781-1.745 1.745v1.923c0 0.964 0.781 1.745 1.745 1.745h0c0.964 0 1.745-0.781 1.745-1.745zM13.275 19.404v1.923c0 0.55-0.446 0.996-0.996 0.996h-0c-0.55 0-0.996-0.446-0.996-0.996 0-0 0-1.924 0-1.924 0-0.55 0.446-0.996 0.996-0.996h0c0.55 0 0.996 0.446 0.996 0.996z">
            </path>
            <path fill="#899f87" style="fill: var(--color3, #899f87)"
                d="M18.571 21.327v-1.923c0-0.964-0.781-1.745-1.745-1.745h-0c-0.964 0-1.745 0.781-1.745 1.745v1.923c0 0.964 0.781 1.745 1.745 1.745h0c0.964 0 1.745-0.781 1.745-1.745zM17.822 19.404v1.923c0 0.55-0.446 0.996-0.996 0.996h-0c-0.55 0-0.996-0.446-0.996-0.996 0-0 0-1.924 0-1.924 0-0.55 0.446-0.996 0.996-0.996h0c0.55 0 0.996 0.446 0.996 0.996z">
            </path>
        </symbol>
        <symbol id="close" viewBox="0 0 32 32">
            <path
                d="M21.589 8.459l-5.657 5.656-5.656-5.656-1.885 1.885 5.656 5.656-5.656 5.656 1.885 1.885 5.656-5.656 5.657 5.656 1.885-1.885-5.656-5.656 5.656-5.656-1.885-1.885z">
            </path>
        </symbol>
        <symbol id="arrow-up" viewBox="0 0 32 32">
            <path stroke-linejoin="round" stroke-linecap="round" stroke-miterlimit="10" stroke-width="1.4545"
                d="M26.56 20.067l-8.693-8.693c-1.027-1.027-2.707-1.027-3.733 0l-8.693 8.693"></path>
        </symbol>
        <symbol id="arrow-left" viewBox="0 0 32 32">
            <path
                d="M0.055 15.729l-0.054-0.763-0.001-0.003 0-0 0.005-0.001 0.025-0.004c0.023-0.004 0.060-0.010 0.108-0.018 0.097-0.017 0.241-0.043 0.426-0.082 0.369-0.077 0.895-0.201 1.516-0.387 1.247-0.374 2.846-0.992 4.309-1.967 1.393-0.929 2.481-2.476 3.234-3.856 0.371-0.68 0.65-1.3 0.835-1.748 0.093-0.224 0.162-0.404 0.207-0.527 0.023-0.061 0.039-0.108 0.050-0.139l0.012-0.034 0.002-0.007 0-0.001c0 0-0 0 0.734 0.245s0.734 0.245 0.734 0.245l-0 0-0.001 0.001-0.001 0.004-0.004 0.013-0.016 0.045c-0.014 0.038-0.033 0.093-0.059 0.163-0.052 0.139-0.128 0.338-0.229 0.582-0.202 0.487-0.504 1.158-0.907 1.897-0.796 1.459-2.031 3.267-3.734 4.402-0.686 0.457-1.393 0.841-2.082 1.162h25.911v1.548h-25.911c0.689 0.321 1.396 0.705 2.082 1.162 1.703 1.136 2.938 2.943 3.734 4.402 0.403 0.739 0.705 1.41 0.907 1.897 0.101 0.244 0.177 0.443 0.229 0.582 0.026 0.070 0.045 0.125 0.059 0.163l0.016 0.045 0.004 0.013 0.001 0.004 0.001 0.001 0 0.001c0 0 0 0-0.734 0.245s-0.734 0.245-0.734 0.245l-0-0.001-0.002-0.007-0.012-0.034c-0.011-0.031-0.027-0.078-0.050-0.139-0.045-0.123-0.114-0.303-0.207-0.527-0.185-0.448-0.464-1.068-0.835-1.748-0.752-1.38-1.84-2.927-3.234-3.856-1.463-0.975-3.062-1.593-4.309-1.967-0.621-0.186-1.147-0.31-1.516-0.387-0.184-0.038-0.329-0.065-0.426-0.082-0.048-0.008-0.085-0.014-0.108-0.018l-0.031-0.005 0.001-0.003 0.054-0.763z">
            </path>
        </symbol>
        <symbol id="dot" viewBox="0 0 32 32">
            <path d="M0 15.086l15.085-15.085 15.085 15.085-15.085 15.085-15.085-15.085z"></path>
        </symbol>
        <symbol id="arrow-right" viewBox="0 0 32 32">
            <path
                d="M31.023 15.729l0.054-0.763 0.001-0.003-0-0-0.005-0.001-0.025-0.004c-0.024-0.004-0.060-0.010-0.108-0.018-0.097-0.017-0.241-0.043-0.426-0.082-0.369-0.077-0.895-0.201-1.516-0.387-1.247-0.374-2.846-0.992-4.309-1.967-1.393-0.929-2.481-2.476-3.234-3.856-0.371-0.68-0.65-1.3-0.835-1.748-0.093-0.224-0.162-0.404-0.207-0.527-0.023-0.061-0.039-0.108-0.050-0.139l-0.012-0.034-0.002-0.007-0-0.001c0 0 0 0-0.734 0.245s-0.734 0.245-0.734 0.245l0 0 0 0.001 0.001 0.004 0.004 0.013 0.016 0.045c0.013 0.038 0.033 0.093 0.059 0.163 0.052 0.139 0.128 0.338 0.229 0.582 0.202 0.487 0.504 1.158 0.907 1.897 0.796 1.459 2.031 3.267 3.734 4.402 0.686 0.457 1.393 0.841 2.082 1.162h-25.911v1.548h25.911c-0.689 0.321-1.396 0.705-2.082 1.162-1.703 1.136-2.938 2.943-3.734 4.402-0.403 0.739-0.705 1.41-0.907 1.897-0.101 0.244-0.177 0.443-0.229 0.582-0.026 0.070-0.045 0.125-0.059 0.163l-0.016 0.045-0.004 0.013-0.001 0.004-0 0.001-0 0.001c-0 0-0 0 0.734 0.245s0.734 0.245 0.734 0.245l0-0.001 0.002-0.007 0.012-0.034c0.011-0.031 0.027-0.078 0.050-0.139 0.045-0.123 0.114-0.303 0.207-0.527 0.186-0.448 0.464-1.068 0.835-1.748 0.753-1.38 1.84-2.927 3.234-3.856 1.463-0.975 3.063-1.593 4.309-1.967 0.621-0.186 1.147-0.31 1.516-0.387 0.184-0.038 0.329-0.065 0.426-0.082 0.048-0.008 0.085-0.014 0.108-0.018l0.025-0.004 0.005-0.001-0.001-0.003-0.054-0.763z">
            </path>
        </symbol>
        <symbol id="arrow-down" viewBox="0 0 32 32">
            <path stroke-linejoin="round" stroke-linecap="round" stroke-miterlimit="10" stroke-width="2"
                d="M26.56 11.934l-8.693 8.693c-1.027 1.027-2.707 1.027-3.733 0l-8.693-8.693"></path>
        </symbol>
        <symbol id="menu" viewBox="0 0 32 32">
            <path stroke-linejoin="miter" stroke-linecap="round" stroke-miterlimit="4" stroke-width="2" d="M4 9.334h24">
            </path>
            <path stroke-linejoin="miter" stroke-linecap="round" stroke-miterlimit="4" stroke-width="2" d="M4 16h24">
            </path>
            <path stroke-linejoin="miter" stroke-linecap="round" stroke-miterlimit="4" stroke-width="2"
                d="M4 22.666h24"></path>
        </symbol>
        <symbol id="background" viewBox="0 0 20 32">
            <path fill="#e4ece0" style="fill: var(--color1, #e4ece0)"
                d="M20.403 16c0 8.837-4.567 16-10.202 16s-10.202-7.163-10.202-16c0-8.837 4.567-16 10.202-16s10.202 7.163 10.202 16z">
            </path>
        </symbol>
    </defs>
</svg>