<svg xmlns="http://www.w3.org/2000/svg" aria-hidden="true" style="position:absolute;width:0;height:0;overflow:hidden">
    <defs>

        <symbol id="icon-Vector-down" viewBox="0 0 60 32">
            <path stroke-linejoin="round" stroke-linecap="round" stroke-miterlimit="10" stroke-width="5"
                d="M55.3 2.5l-21.733 21.733c-2.567 2.567-6.767 2.567-9.333 0l-21.733-21.733"></path>
        </symbol>

        <symbol id="icon-close" viewBox="0 0 32 32">
            <path
                d="M32 3.223 28.777 0 16 12.777 3.223 0 0 3.223 12.777 16 0 28.777 3.223 32 16 19.223 28.777 32 32 28.777 19.223 16 32 3.223z" />
        </symbol>


        <symbol id="icon-close" viewBox="0 0 32 32">
            <path
                d="M32 3.223l-3.223-3.223-12.777 12.777-12.777-12.777-3.223 3.223 12.777 12.777-12.777 12.777 3.223 3.223 12.777-12.777 12.777 12.777 3.223-3.223-12.777-12.777 12.777-12.777z">
            </path>
        </symbol>

        <symbol id="menu" viewBox="0 0 20 20" fill="none">
            <path d="M2.5 5.8335H17.5" stroke="#213721" stroke-width="2" stroke-linecap="round" />
            <path d="M2.5 10H17.5" stroke="#213721" stroke-width="2" stroke-linecap="round" />
            <path d="M2.5 14.1665H17.5" stroke="#213721" stroke-width="2" stroke-linecap="round" />
        </symbol>




    </defs>
</svg>