<svg aria-hidden="true" style="position: absolute; width: 0; height: 0; overflow: hidden;" version="1.1" xmlns="http://www.w3.org/2000/svg" xmlns:xlink="http://www.w3.org/1999/xlink">
<defs>
<symbol id="main-logo" viewBox="0 0 102 32">
<path d="M94.693 9.233v6.508c0 0.766 0.837 0.885 1.651 0.885v0.144h-5.287v-0.144c0.813 0 1.651-0.12 1.651-0.885v-5.982l-4.809-8.686c-0.502-0.861-0.909-0.909-1.723-0.909v-0.12h5.312v0.12c-0.813 0-1.747 0.096-1.34 0.861l4.139 7.489h0.024l0.24 0.455 4.163-7.896c0.455-0.79-0.191-0.909-1.004-0.909v-0.12h3.876v0.12c-0.837 0-2.129 0.144-2.584 0.909l-4.307 8.159z"></path>
<path d="M72.459 4.065l1.077-4.044h10.121l1.077 4.044-0.12 0.024-0.909-3.015c-0.239-0.67-0.694-0.79-1.46-0.79h-1.053c-0.79 0-1.603 0-1.603 0.766v14.691c0 0.766 0.837 0.885 1.651 0.885v0.144h-5.312v-0.144c0.838 0 1.675-0.12 1.675-0.885v-14.691c0-0.766-0.814-0.766-1.627-0.766h-1.029c-0.766 0-1.244 0.12-1.46 0.79l-0.909 3.015-0.12-0.024z"></path>
<path d="M67.603 8.922h-0.12c0-2.608-0.67-3.015-1.507-3.015h-0.67c-0.718 0-1.483 0.096-2.201 0.287v9.547c0 0.766 0.813 0.766 1.627 0.766h3.804c0.766 0 1.244-0.096 1.46-0.79l0.909-3.015 0.12 0.024-1.077 4.044h-10.48v-0.12c0.813 0 1.651-0.144 1.651-0.909v-8.614c-0.909 0.67-1.531 1.651-1.531 2.991h-0.12c0-1.46 0.67-2.536 1.651-3.254v-5.79c0-0.79-0.837-0.909-1.651-0.909v-0.12h10.48l1.077 4.020-0.12 0.048-0.909-3.039c-0.215-0.67-0.694-0.79-1.46-0.79h-3.804c-0.814 0-1.627 0-1.627 0.79v4.881c0.718-0.191 1.483-0.287 2.201-0.287h0.67c0.837 0 1.507-0.168 1.507-1.723h0.12v4.977z"></path>
<path d="M48.025 0.045v0.12c-0.694 0-1.436 0.096-1.483 0.622l4.139 11.27 0.622 1.747 4.498-12.729h-0.024c0.239-0.79-0.814-0.909-1.627-0.909v-0.12h3.876v0.12c-0.766 0-1.603 0.072-1.914 0.718l-5.575 15.888h-0.263v-0.024l-5.767-15.672c-0.263-0.885-0.957-0.909-1.771-0.909v-0.12h5.288z"></path>
<path d="M33.383 1.074v14.667c0 0.766 0.813 0.79 1.603 0.79h3.804c0.789 0 1.244-0.12 1.483-0.79l0.909-3.039 0.12 0.048-1.077 4.020h-10.504v-0.12c0.837 0 1.675-0.12 1.675-0.909v-14.667c0-0.79-0.837-0.909-1.675-0.909v-0.12h5.312v0.12c-0.813 0-1.651 0.12-1.651 0.909z"></path>
<path d="M24.866 8.922h-0.12c0-2.608-0.67-3.015-1.507-3.015h-0.67c-0.718 0-1.483 0.096-2.201 0.287v9.547c0 0.766 0.814 0.766 1.627 0.766h3.804c0.766 0 1.244-0.096 1.46-0.79l0.909-3.015 0.12 0.024-1.077 4.044h-10.48v-0.12c0.814 0 1.651-0.144 1.651-0.909v-8.614c-0.909 0.67-1.531 1.651-1.531 2.991h-0.12c0-1.46 0.67-2.536 1.651-3.254v-5.79c0-0.79-0.837-0.909-1.651-0.909v-0.12h10.48l1.077 4.020-0.12 0.048-0.909-3.039c-0.215-0.67-0.694-0.79-1.46-0.79h-3.804c-0.814 0-1.627 0-1.627 0.79v4.881c0.718-0.191 1.483-0.287 2.201-0.287h0.67c0.837 0 1.507-0.168 1.507-1.723h0.12v4.977z"></path>
<path d="M5.288 0.045v0.12c-0.694 0-1.436 0.096-1.484 0.622l4.139 11.27 0.622 1.747 4.498-12.729h-0.024c0.239-0.79-0.814-0.909-1.627-0.909v-0.12h3.876v0.12c-0.766 0-1.603 0.072-1.914 0.718l-5.575 15.888h-0.263v-0.024l-5.766-15.672c-0.263-0.885-0.957-0.909-1.771-0.909v-0.12h5.288z"></path>
<path d="M83.592 31.479c-0.473 0-0.83-0.132-1.070-0.396-0.233-0.256-0.349-0.574-0.349-0.954 0-0.349 0.085-0.718 0.256-1.105 0.178-0.388 0.411-0.752 0.698-1.094 0.295-0.341 0.617-0.617 0.966-0.826 0.349-0.217 0.694-0.326 1.036-0.326 0.178 0 0.341 0.047 0.489 0.14 0.155 0.093 0.233 0.283 0.233 0.57 0 0.295-0.089 0.574-0.268 0.838-0.171 0.256-0.4 0.485-0.687 0.687-0.279 0.202-0.59 0.368-0.931 0.5-0.334 0.124-0.667 0.202-1.001 0.233-0.015 0.078-0.027 0.151-0.035 0.221s-0.012 0.136-0.012 0.198c0 0.116 0.012 0.233 0.035 0.349 0.031 0.116 0.082 0.225 0.151 0.326 0.070 0.093 0.163 0.167 0.279 0.221 0.124 0.054 0.275 0.081 0.454 0.081 0.334 0 0.663-0.093 0.989-0.279 0.326-0.194 0.628-0.446 0.908-0.756s0.516-0.652 0.71-1.024l0.14 0.105c-0.209 0.465-0.477 0.869-0.803 1.21-0.318 0.341-0.667 0.605-1.047 0.791-0.372 0.194-0.752 0.291-1.14 0.291zM83.022 29.524c0.209-0.070 0.446-0.171 0.71-0.303 0.264-0.14 0.516-0.303 0.756-0.489 0.248-0.186 0.45-0.392 0.605-0.617 0.163-0.225 0.244-0.462 0.244-0.71 0-0.085-0.016-0.151-0.047-0.198s-0.097-0.070-0.198-0.070c-0.186 0-0.384 0.074-0.594 0.221-0.209 0.14-0.411 0.326-0.605 0.559s-0.369 0.489-0.524 0.768c-0.155 0.279-0.272 0.559-0.349 0.838z"></path>
<path d="M80.303 31.269c-0.264 0-0.473-0.070-0.628-0.209-0.147-0.14-0.221-0.322-0.221-0.547 0-0.233 0.054-0.477 0.163-0.733s0.213-0.508 0.314-0.756c0.109-0.256 0.163-0.485 0.163-0.687 0-0.248-0.074-0.43-0.221-0.547-0.14-0.124-0.283-0.237-0.43-0.337-0.178 0.458-0.365 0.892-0.559 1.303s-0.353 0.721-0.477 0.931l-0.105-0.198c0.109-0.202 0.248-0.496 0.419-0.884 0.178-0.388 0.353-0.83 0.524-1.326-0.078-0.078-0.116-0.171-0.116-0.279 0-0.233 0.066-0.423 0.198-0.57s0.229-0.221 0.291-0.221c0.085 0 0.132 0.039 0.14 0.116 0.016 0.070 0.023 0.124 0.023 0.163s-0.023 0.116-0.070 0.233c-0.039 0.109-0.058 0.175-0.058 0.198 0 0.109 0.058 0.209 0.175 0.303 0.124 0.085 0.264 0.186 0.419 0.303 0.155 0.109 0.291 0.244 0.407 0.407 0.124 0.155 0.186 0.357 0.186 0.605 0 0.233-0.050 0.469-0.151 0.71-0.093 0.241-0.19 0.469-0.291 0.687-0.093 0.217-0.14 0.407-0.14 0.57 0 0.14 0.035 0.233 0.105 0.279s0.151 0.070 0.244 0.070c0.186 0 0.376-0.058 0.57-0.175 0.202-0.116 0.396-0.264 0.582-0.442s0.353-0.365 0.5-0.559c0.147-0.202 0.256-0.388 0.326-0.559l0.151 0.116c-0.147 0.326-0.349 0.648-0.605 0.966-0.256 0.31-0.543 0.566-0.861 0.768-0.31 0.202-0.632 0.302-0.966 0.302z"></path>
<path d="M73.78 31.513c-0.24 0-0.442-0.081-0.605-0.244-0.171-0.155-0.256-0.396-0.256-0.721 0-0.279 0.062-0.578 0.186-0.896 0.124-0.326 0.295-0.644 0.512-0.954 0.217-0.318 0.462-0.605 0.733-0.861 0.279-0.264 0.57-0.473 0.873-0.628 0.31-0.155 0.617-0.233 0.919-0.233s0.555 0.081 0.756 0.244c0.202 0.155 0.302 0.365 0.302 0.628 0 0.194-0.054 0.326-0.163 0.396-0.101 0.070-0.237 0.105-0.407 0.105 0.015-0.062 0.027-0.128 0.035-0.198 0.015-0.078 0.023-0.147 0.023-0.209 0-0.178-0.043-0.33-0.128-0.454-0.085-0.132-0.233-0.198-0.442-0.198-0.217 0-0.438 0.078-0.663 0.233-0.225 0.147-0.442 0.349-0.652 0.605-0.209 0.248-0.396 0.52-0.559 0.814s-0.291 0.586-0.384 0.873c-0.093 0.287-0.14 0.543-0.14 0.768 0 0.302 0.105 0.454 0.314 0.454 0.178 0 0.372-0.081 0.582-0.244 0.209-0.171 0.423-0.384 0.64-0.64 0.225-0.264 0.438-0.535 0.64-0.815s0.38-0.535 0.535-0.768c0.031-0.047 0.050-0.070 0.058-0.070 0.047 0.008 0.105 0.023 0.175 0.047 0.078 0.023 0.143 0.054 0.198 0.093s0.081 0.089 0.081 0.151c0 0.070-0.035 0.167-0.105 0.291-0.070 0.116-0.147 0.252-0.233 0.407s-0.163 0.314-0.233 0.477c-0.070 0.155-0.105 0.303-0.105 0.442 0 0.116 0.031 0.233 0.093 0.349 0.062 0.109 0.163 0.163 0.303 0.163 0.209 0 0.485-0.151 0.826-0.454 0.341-0.31 0.687-0.772 1.036-1.385l0.116 0.116c-0.163 0.419-0.372 0.787-0.628 1.105s-0.531 0.566-0.826 0.745c-0.287 0.178-0.57 0.268-0.849 0.268-0.287 0-0.5-0.085-0.64-0.256-0.132-0.171-0.198-0.357-0.198-0.559 0-0.047 0.004-0.097 0.012-0.151 0.008-0.062 0.015-0.124 0.023-0.186-0.334 0.45-0.64 0.787-0.919 1.012-0.272 0.225-0.551 0.337-0.838 0.337z"></path>
<path d="M70.706 31.618c-0.372 0-0.683-0.124-0.931-0.372s-0.372-0.621-0.372-1.117c0-0.388 0.074-0.764 0.221-1.129 0.155-0.372 0.357-0.706 0.605-1.001s0.524-0.527 0.826-0.698c0.303-0.178 0.601-0.268 0.896-0.268 0.318 0 0.535 0.093 0.652 0.279s0.175 0.38 0.175 0.582c0 0.225-0.054 0.423-0.163 0.593-0.101 0.171-0.24 0.256-0.419 0.256-0.132 0-0.244-0.058-0.338-0.175 0.116-0.062 0.217-0.186 0.303-0.372 0.085-0.194 0.128-0.376 0.128-0.547 0-0.093-0.019-0.163-0.058-0.209-0.031-0.054-0.097-0.081-0.198-0.081-0.21 0-0.427 0.093-0.652 0.279-0.217 0.186-0.423 0.427-0.617 0.721-0.186 0.295-0.341 0.605-0.466 0.931-0.116 0.326-0.174 0.632-0.174 0.919 0 0.241 0.058 0.462 0.174 0.663s0.341 0.303 0.675 0.303c0.31 0 0.621-0.085 0.931-0.256 0.318-0.171 0.613-0.415 0.884-0.733s0.489-0.69 0.652-1.117l0.151 0.116c-0.178 0.465-0.423 0.884-0.733 1.257-0.31 0.365-0.652 0.652-1.024 0.861s-0.749 0.314-1.129 0.314z"></path>
<path d="M67.799 31.2c-0.272 0-0.477-0.070-0.617-0.209-0.132-0.14-0.198-0.318-0.198-0.535 0-0.163 0.027-0.334 0.081-0.512 0.062-0.178 0.12-0.361 0.175-0.547 0.054-0.194 0.081-0.38 0.081-0.559 0-0.217-0.046-0.365-0.14-0.442-0.085-0.085-0.194-0.128-0.326-0.128-0.24 0-0.485 0.101-0.733 0.303-0.248 0.194-0.489 0.446-0.722 0.756-0.233 0.302-0.45 0.617-0.652 0.942s-0.38 0.617-0.535 0.873c-0.124 0-0.241-0.023-0.349-0.070-0.116-0.039-0.206-0.101-0.268-0.186 0-0.039 0.043-0.159 0.128-0.361 0.078-0.202 0.171-0.45 0.279-0.745s0.206-0.597 0.291-0.908 0.128-0.593 0.128-0.849c0.047-0.054 0.12-0.109 0.221-0.163s0.206-0.081 0.314-0.081c0.209 0 0.314 0.101 0.314 0.302 0 0.124-0.035 0.334-0.105 0.628-0.070 0.287-0.159 0.59-0.268 0.908 0.21-0.318 0.442-0.632 0.698-0.942 0.264-0.318 0.543-0.582 0.838-0.791s0.59-0.314 0.884-0.314c0.303 0 0.52 0.109 0.652 0.326 0.14 0.217 0.21 0.458 0.21 0.721 0 0.241-0.039 0.465-0.116 0.675-0.078 0.202-0.159 0.399-0.244 0.593-0.078 0.186-0.116 0.376-0.116 0.57 0 0.163 0.031 0.279 0.093 0.349 0.070 0.062 0.155 0.093 0.256 0.093 0.194 0 0.388-0.089 0.582-0.268 0.194-0.186 0.38-0.419 0.559-0.698 0.186-0.279 0.349-0.562 0.489-0.849l0.128 0.151c-0.163 0.38-0.345 0.718-0.547 1.012s-0.423 0.528-0.663 0.698c-0.24 0.171-0.508 0.256-0.803 0.256z"></path>
<path d="M62.071 31.269c-0.303 0-0.528-0.097-0.675-0.291-0.147-0.186-0.221-0.415-0.221-0.686 0-0.178 0.031-0.403 0.093-0.675 0.070-0.272 0.159-0.555 0.268-0.849 0.109-0.303 0.233-0.586 0.372-0.849 0.147-0.264 0.303-0.477 0.465-0.64 0.163-0.171 0.322-0.256 0.477-0.256 0.070 0 0.128 0.023 0.175 0.070 0.054 0.039 0.081 0.101 0.081 0.186 0 0.093-0.062 0.244-0.186 0.454-0.116 0.209-0.256 0.45-0.419 0.721s-0.306 0.559-0.431 0.861c-0.116 0.295-0.175 0.578-0.175 0.849 0 0.279 0.047 0.465 0.14 0.558s0.237 0.14 0.431 0.14c0.264 0 0.543-0.132 0.838-0.396 0.303-0.264 0.621-0.725 0.954-1.385l0.105 0.116c-0.225 0.667-0.551 1.179-0.977 1.536-0.419 0.357-0.857 0.535-1.315 0.535zM63.467 25.94c-0.124 0-0.237-0.031-0.337-0.093-0.093-0.062-0.14-0.159-0.14-0.291 0-0.163 0.093-0.303 0.279-0.419 0.194-0.124 0.384-0.186 0.57-0.186 0.116 0 0.209 0.027 0.279 0.081s0.105 0.147 0.105 0.279c0 0.147-0.081 0.291-0.244 0.43-0.155 0.132-0.326 0.198-0.512 0.198z"></path>
<path d="M59.496 31.409c-0.217 0-0.403-0.074-0.559-0.221s-0.279-0.334-0.372-0.559c-0.085-0.225-0.151-0.454-0.198-0.687-0.039-0.24-0.058-0.45-0.058-0.628 0.085 0 0.209-0.019 0.372-0.058 0.163-0.047 0.33-0.113 0.5-0.198 0.171-0.093 0.314-0.209 0.431-0.349 0.124-0.147 0.186-0.318 0.186-0.512 0-0.163-0.058-0.291-0.175-0.384s-0.252-0.14-0.407-0.14c-0.24 0-0.465 0.085-0.675 0.256-0.209 0.163-0.399 0.38-0.57 0.652-0.163 0.264-0.31 0.547-0.442 0.849s-0.244 0.59-0.337 0.861c-0.093 0.271-0.171 0.496-0.233 0.675-0.047 0.14-0.113 0.233-0.198 0.279-0.085 0.054-0.175 0.081-0.268 0.081-0.132 0-0.229-0.054-0.291-0.163-0.054-0.109-0.089-0.244-0.105-0.407-0.008-0.171-0.012-0.345-0.012-0.524 0-0.403 0.066-0.869 0.198-1.396s0.306-1.074 0.524-1.641c0.225-0.574 0.469-1.129 0.733-1.664s0.528-1.020 0.791-1.455c0.264-0.434 0.508-0.78 0.733-1.036s0.407-0.384 0.547-0.384c0.109 0 0.194 0.074 0.256 0.221 0.070 0.147 0.105 0.326 0.105 0.535 0 0.264-0.058 0.563-0.175 0.896-0.116 0.326-0.283 0.656-0.5 0.989-0.209 0.334-0.462 0.648-0.756 0.942-0.287 0.295-0.601 0.547-0.943 0.756-0.256 0.628-0.45 1.241-0.582 1.839-0.124 0.59-0.186 1.086-0.186 1.489 0.124-0.31 0.271-0.652 0.442-1.024 0.178-0.372 0.38-0.729 0.605-1.070s0.469-0.621 0.733-0.838c0.264-0.217 0.539-0.326 0.826-0.326s0.531 0.101 0.733 0.302c0.202 0.202 0.303 0.446 0.303 0.733 0 0.248-0.066 0.462-0.198 0.64-0.124 0.171-0.279 0.31-0.465 0.419-0.178 0.101-0.361 0.178-0.547 0.233-0.178 0.047-0.326 0.070-0.442 0.070 0.008 0.062 0.031 0.175 0.070 0.337s0.093 0.334 0.163 0.512c0.078 0.178 0.171 0.334 0.279 0.465 0.109 0.124 0.241 0.186 0.396 0.186 0.225 0 0.438-0.085 0.64-0.256s0.392-0.396 0.57-0.675c0.186-0.287 0.357-0.609 0.512-0.966l0.116 0.116c-0.109 0.38-0.275 0.741-0.5 1.082-0.225 0.334-0.477 0.605-0.756 0.814-0.272 0.217-0.543 0.326-0.815 0.326zM57.797 26.533c0.357-0.287 0.667-0.613 0.931-0.977 0.271-0.365 0.481-0.714 0.628-1.047 0.147-0.341 0.221-0.609 0.221-0.803 0-0.039-0.004-0.066-0.012-0.081 0-0.016-0.008-0.023-0.023-0.023-0.078 0-0.213 0.136-0.407 0.407-0.186 0.271-0.4 0.632-0.64 1.082-0.241 0.442-0.473 0.923-0.698 1.443z"></path>
<path d="M53.251 31.56c-0.365 0-0.656-0.081-0.873-0.244-0.209-0.155-0.357-0.349-0.442-0.582-0.093-0.233-0.14-0.465-0.14-0.698s0.031-0.411 0.093-0.535c0.062-0.124 0.136-0.217 0.221-0.279 0.093-0.062 0.178-0.109 0.256-0.14 0.085-0.031 0.143-0.062 0.175-0.093 0.233-0.256 0.446-0.524 0.64-0.803s0.365-0.574 0.512-0.884v-0.14c0-0.287 0.047-0.489 0.14-0.605 0.101-0.124 0.206-0.186 0.314-0.186 0.062 0 0.109 0.016 0.14 0.047s0.047 0.066 0.047 0.105c0 0.039-0.012 0.101-0.035 0.186s-0.035 0.194-0.035 0.326c0 0.256 0.050 0.535 0.151 0.838 0.101 0.295 0.202 0.609 0.303 0.943 0.101 0.326 0.151 0.667 0.151 1.024 0 0.101-0.008 0.202-0.023 0.303-0.008 0.093-0.023 0.182-0.047 0.268 0.271-0.047 0.527-0.167 0.768-0.361 0.24-0.202 0.473-0.52 0.698-0.954l0.105 0.116c-0.147 0.427-0.368 0.752-0.663 0.977-0.295 0.217-0.617 0.353-0.966 0.407-0.124 0.334-0.322 0.578-0.593 0.733-0.264 0.155-0.563 0.233-0.896 0.233zM53.274 31.153c0.093 0 0.217-0.031 0.372-0.093s0.275-0.221 0.361-0.477c-0.326-0.062-0.617-0.19-0.873-0.384-0.248-0.194-0.434-0.388-0.559-0.582-0.171 0.008-0.256 0.143-0.256 0.407 0 0.279 0.081 0.539 0.244 0.78 0.171 0.233 0.407 0.349 0.71 0.349zM54.065 30.396c0.016-0.078 0.027-0.159 0.035-0.244s0.012-0.186 0.012-0.302c0-0.365-0.047-0.725-0.14-1.082-0.085-0.365-0.159-0.706-0.221-1.024-0.178 0.295-0.369 0.578-0.57 0.849-0.194 0.264-0.38 0.485-0.559 0.663 0.116 0.248 0.295 0.481 0.535 0.698 0.248 0.217 0.551 0.365 0.908 0.442z"></path>
<path d="M44.070 31.979c-0.465 0-0.869-0.097-1.21-0.291s-0.605-0.45-0.791-0.768c-0.178-0.326-0.268-0.679-0.268-1.059 0-0.357 0.078-0.706 0.233-1.047s0.368-0.652 0.64-0.931c0.279-0.287 0.601-0.52 0.966-0.698 0.365-0.186 0.756-0.299 1.175-0.337-0.303-0.248-0.527-0.535-0.675-0.861-0.14-0.326-0.209-0.652-0.209-0.977 0-0.411 0.105-0.799 0.314-1.164 0.209-0.372 0.493-0.671 0.849-0.896 0.365-0.233 0.78-0.349 1.245-0.349 0.419 0 0.733 0.105 0.943 0.314 0.217 0.209 0.326 0.516 0.326 0.919 0 0.287-0.047 0.57-0.14 0.849-0.093 0.271-0.209 0.496-0.349 0.675-0.132 0.171-0.264 0.256-0.396 0.256-0.085 0-0.167-0.035-0.244-0.105-0.078-0.078-0.14-0.167-0.186-0.268 0.271-0.24 0.496-0.489 0.675-0.745 0.186-0.264 0.279-0.547 0.279-0.849 0-0.241-0.066-0.434-0.198-0.582-0.124-0.155-0.322-0.233-0.593-0.233-0.365 0-0.671 0.113-0.919 0.337-0.248 0.217-0.438 0.508-0.57 0.873-0.124 0.357-0.186 0.745-0.186 1.164 0 0.186 0.015 0.384 0.047 0.593 0.039 0.209 0.105 0.415 0.198 0.617 0.101 0.202 0.244 0.384 0.431 0.547-0.52 0.085-0.974 0.283-1.361 0.593-0.38 0.31-0.679 0.675-0.896 1.094-0.209 0.419-0.314 0.834-0.314 1.245 0 0.256 0.047 0.516 0.14 0.78 0.101 0.256 0.26 0.469 0.477 0.64 0.217 0.178 0.508 0.268 0.873 0.268 0.411 0 0.807-0.105 1.187-0.314 0.388-0.209 0.737-0.489 1.047-0.838 0.318-0.349 0.578-0.741 0.78-1.175 0.202-0.442 0.33-0.896 0.384-1.361-0.163 0.008-0.314 0.019-0.454 0.035-0.132 0.016-0.279 0.039-0.442 0.070-0.163 0.023-0.372 0.062-0.628 0.116 0.016-0.326 0.14-0.543 0.372-0.652s0.512-0.163 0.838-0.163c0.233 0 0.454 0.016 0.663 0.047s0.407 0.062 0.593 0.093c0.194 0.031 0.368 0.050 0.524 0.058-0.085 0.178-0.171 0.287-0.256 0.326-0.078 0.031-0.155 0.047-0.233 0.047-0.132 0-0.256 0.004-0.372 0.012-0.109 0-0.209 0-0.303 0-0.054 0.535-0.202 1.047-0.442 1.536-0.233 0.489-0.535 0.927-0.908 1.315-0.365 0.38-0.776 0.683-1.233 0.908-0.45 0.225-0.923 0.337-1.42 0.337z"></path>
<path d="M37.029 31.316c-0.334 0-0.574-0.116-0.721-0.349-0.14-0.225-0.209-0.508-0.209-0.849 0-0.372 0.070-0.814 0.209-1.326s0.322-1.051 0.547-1.617c0.233-0.566 0.485-1.117 0.756-1.652 0.271-0.543 0.543-1.036 0.815-1.478s0.52-0.795 0.745-1.059c0.233-0.264 0.415-0.396 0.547-0.396 0.085 0 0.155 0.050 0.209 0.151 0.054 0.093 0.097 0.209 0.128 0.349 0.031 0.132 0.047 0.252 0.047 0.361 0 0.209-0.054 0.485-0.163 0.826-0.101 0.334-0.248 0.71-0.442 1.129-0.186 0.411-0.411 0.83-0.675 1.257-0.256 0.419-0.539 0.822-0.849 1.21-0.303 0.388-0.624 0.721-0.966 1.001-0.047 0.209-0.085 0.415-0.116 0.617-0.023 0.194-0.035 0.38-0.035 0.559 0 0.302 0.043 0.527 0.128 0.675s0.213 0.221 0.384 0.221c0.209 0 0.415-0.093 0.617-0.279 0.209-0.186 0.403-0.419 0.582-0.698 0.186-0.287 0.345-0.582 0.477-0.884l0.175 0.093c-0.31 0.659-0.648 1.183-1.012 1.571-0.365 0.38-0.756 0.57-1.175 0.57zM37.11 28.477c0.271-0.271 0.535-0.582 0.791-0.931 0.256-0.357 0.493-0.725 0.71-1.105 0.225-0.38 0.423-0.749 0.593-1.105s0.303-0.675 0.396-0.954c0.093-0.287 0.14-0.508 0.14-0.663 0-0.078-0.012-0.128-0.035-0.151-0.015-0.023-0.031-0.035-0.047-0.035-0.062 0-0.171 0.101-0.326 0.302-0.147 0.194-0.322 0.458-0.524 0.791s-0.407 0.714-0.617 1.14c-0.209 0.427-0.411 0.873-0.605 1.338-0.186 0.465-0.345 0.923-0.477 1.373z"></path>
<path d="M31.553 31.513c-0.24 0-0.442-0.081-0.605-0.244-0.171-0.155-0.256-0.396-0.256-0.721 0-0.279 0.062-0.578 0.186-0.896 0.124-0.326 0.295-0.644 0.512-0.954 0.217-0.318 0.462-0.605 0.733-0.861 0.279-0.264 0.57-0.473 0.873-0.628 0.31-0.155 0.617-0.233 0.919-0.233s0.555 0.081 0.756 0.244c0.202 0.155 0.303 0.365 0.303 0.628 0 0.194-0.054 0.326-0.163 0.396-0.101 0.070-0.237 0.105-0.407 0.105 0.016-0.062 0.027-0.128 0.035-0.198 0.015-0.078 0.023-0.147 0.023-0.209 0-0.178-0.043-0.33-0.128-0.454-0.085-0.132-0.233-0.198-0.442-0.198-0.217 0-0.438 0.078-0.663 0.233-0.225 0.147-0.442 0.349-0.652 0.605-0.209 0.248-0.396 0.52-0.559 0.814s-0.291 0.586-0.384 0.873c-0.093 0.287-0.14 0.543-0.14 0.768 0 0.302 0.105 0.454 0.314 0.454 0.178 0 0.372-0.081 0.582-0.244 0.209-0.171 0.423-0.384 0.64-0.64 0.225-0.264 0.438-0.535 0.64-0.815s0.38-0.535 0.535-0.768c0.031-0.047 0.050-0.070 0.058-0.070 0.047 0.008 0.105 0.023 0.175 0.047 0.078 0.023 0.143 0.054 0.198 0.093s0.081 0.089 0.081 0.151c0 0.070-0.035 0.167-0.105 0.291-0.070 0.116-0.147 0.252-0.233 0.407s-0.163 0.314-0.233 0.477c-0.070 0.155-0.105 0.303-0.105 0.442 0 0.116 0.031 0.233 0.093 0.349 0.062 0.109 0.163 0.163 0.303 0.163 0.209 0 0.485-0.151 0.826-0.454 0.341-0.31 0.687-0.772 1.036-1.385l0.116 0.116c-0.163 0.419-0.372 0.787-0.628 1.105s-0.531 0.566-0.826 0.745c-0.287 0.178-0.57 0.268-0.849 0.268-0.287 0-0.5-0.085-0.64-0.256-0.132-0.171-0.198-0.357-0.198-0.559 0-0.047 0.004-0.097 0.012-0.151 0.008-0.062 0.015-0.124 0.023-0.186-0.334 0.45-0.64 0.787-0.919 1.012-0.272 0.225-0.551 0.337-0.838 0.337z"></path>
<path d="M29.026 31.269c-0.303 0-0.528-0.097-0.675-0.291-0.147-0.186-0.221-0.415-0.221-0.686 0-0.178 0.031-0.403 0.093-0.675 0.070-0.272 0.159-0.555 0.268-0.849 0.109-0.303 0.233-0.586 0.372-0.849 0.147-0.264 0.303-0.477 0.465-0.64 0.163-0.171 0.322-0.256 0.477-0.256 0.070 0 0.128 0.023 0.175 0.070 0.054 0.039 0.081 0.101 0.081 0.186 0 0.093-0.062 0.244-0.186 0.454-0.116 0.209-0.256 0.45-0.419 0.721s-0.306 0.559-0.431 0.861c-0.116 0.295-0.175 0.578-0.175 0.849 0 0.279 0.047 0.465 0.14 0.558s0.237 0.14 0.431 0.14c0.264 0 0.543-0.132 0.838-0.396 0.303-0.264 0.621-0.725 0.954-1.385l0.105 0.116c-0.225 0.667-0.551 1.179-0.977 1.536-0.419 0.357-0.857 0.535-1.315 0.535zM30.422 25.94c-0.124 0-0.237-0.031-0.337-0.093-0.093-0.062-0.14-0.159-0.14-0.291 0-0.163 0.093-0.303 0.279-0.419 0.194-0.124 0.384-0.186 0.57-0.186 0.116 0 0.209 0.027 0.279 0.081s0.105 0.147 0.105 0.279c0 0.147-0.081 0.291-0.244 0.43-0.155 0.132-0.326 0.198-0.512 0.198z"></path>
<path d="M25.672 31.618c-0.372 0-0.683-0.124-0.931-0.372s-0.372-0.621-0.372-1.117c0-0.388 0.074-0.764 0.221-1.129 0.155-0.372 0.357-0.706 0.605-1.001s0.524-0.527 0.826-0.698c0.302-0.178 0.601-0.268 0.896-0.268 0.318 0 0.535 0.093 0.652 0.279s0.174 0.38 0.174 0.582c0 0.225-0.054 0.423-0.163 0.593-0.101 0.171-0.24 0.256-0.419 0.256-0.132 0-0.244-0.058-0.337-0.175 0.116-0.062 0.217-0.186 0.303-0.372 0.085-0.194 0.128-0.376 0.128-0.547 0-0.093-0.019-0.163-0.058-0.209-0.031-0.054-0.097-0.081-0.198-0.081-0.209 0-0.427 0.093-0.652 0.279-0.217 0.186-0.423 0.427-0.617 0.721-0.186 0.295-0.341 0.605-0.465 0.931-0.116 0.326-0.175 0.632-0.175 0.919 0 0.241 0.058 0.462 0.175 0.663s0.341 0.303 0.675 0.303c0.31 0 0.621-0.085 0.931-0.256 0.318-0.171 0.613-0.415 0.884-0.733s0.489-0.69 0.652-1.117l0.151 0.116c-0.178 0.465-0.423 0.884-0.733 1.257-0.31 0.365-0.652 0.652-1.024 0.861s-0.749 0.314-1.129 0.314z"></path>
<path d="M19.917 31.513c-0.24 0-0.442-0.081-0.605-0.244-0.171-0.155-0.256-0.396-0.256-0.721 0-0.279 0.062-0.578 0.186-0.896 0.124-0.326 0.295-0.644 0.512-0.954 0.217-0.318 0.462-0.605 0.733-0.861 0.279-0.264 0.57-0.473 0.873-0.628 0.31-0.155 0.617-0.233 0.919-0.233s0.555 0.081 0.756 0.244c0.202 0.155 0.303 0.365 0.303 0.628 0 0.194-0.054 0.326-0.163 0.396-0.101 0.070-0.237 0.105-0.407 0.105 0.016-0.062 0.027-0.128 0.035-0.198 0.015-0.078 0.023-0.147 0.023-0.209 0-0.178-0.043-0.33-0.128-0.454-0.085-0.132-0.233-0.198-0.442-0.198-0.217 0-0.438 0.078-0.663 0.233-0.225 0.147-0.442 0.349-0.652 0.605-0.209 0.248-0.396 0.52-0.558 0.814s-0.291 0.586-0.384 0.873c-0.093 0.287-0.14 0.543-0.14 0.768 0 0.302 0.105 0.454 0.314 0.454 0.178 0 0.372-0.081 0.582-0.244 0.209-0.171 0.423-0.384 0.64-0.64 0.225-0.264 0.438-0.535 0.64-0.815s0.38-0.535 0.535-0.768c0.031-0.047 0.050-0.070 0.058-0.070 0.047 0.008 0.105 0.023 0.175 0.047 0.078 0.023 0.143 0.054 0.198 0.093s0.081 0.089 0.081 0.151c0 0.070-0.035 0.167-0.105 0.291-0.070 0.116-0.147 0.252-0.233 0.407s-0.163 0.314-0.233 0.477c-0.070 0.155-0.105 0.303-0.105 0.442 0 0.116 0.031 0.233 0.093 0.349 0.062 0.109 0.163 0.163 0.303 0.163 0.209 0 0.485-0.151 0.826-0.454 0.341-0.31 0.687-0.772 1.036-1.385l0.116 0.116c-0.163 0.419-0.372 0.787-0.628 1.105s-0.531 0.566-0.826 0.745c-0.287 0.178-0.57 0.268-0.849 0.268-0.287 0-0.5-0.085-0.64-0.256-0.132-0.171-0.198-0.357-0.198-0.559 0-0.047 0.004-0.097 0.012-0.151 0.008-0.062 0.015-0.124 0.023-0.186-0.334 0.45-0.64 0.787-0.919 1.012-0.272 0.225-0.551 0.337-0.838 0.337z"></path>
<path d="M16.002 31.979c-0.357-0.031-0.578-0.128-0.663-0.291s-0.128-0.372-0.128-0.628c0-0.279 0.058-0.621 0.175-1.024 0.116-0.411 0.26-0.857 0.431-1.338 0.178-0.481 0.357-0.962 0.535-1.443-0.093 0.008-0.194 0.019-0.303 0.035-0.101 0.008-0.229 0.023-0.384 0.047-0.155 0.015-0.357 0.043-0.605 0.081 0.016-0.202 0.089-0.357 0.221-0.465 0.14-0.116 0.322-0.202 0.547-0.256s0.477-0.085 0.756-0.093c0.217-0.597 0.438-1.179 0.663-1.745 0.233-0.574 0.462-1.098 0.687-1.571-0.078-0.008-0.155-0.012-0.233-0.012-0.070-0.008-0.144-0.012-0.221-0.012-0.496 0-0.88 0.050-1.152 0.151s-0.458 0.256-0.559 0.465c-0.101 0.209-0.151 0.477-0.151 0.803 0 0.171 0.012 0.33 0.035 0.477 0.023 0.14 0.062 0.287 0.116 0.442-0.264-0.047-0.458-0.147-0.582-0.302-0.124-0.163-0.186-0.365-0.186-0.605 0-0.403 0.143-0.756 0.431-1.059 0.287-0.31 0.671-0.551 1.152-0.721 0.489-0.178 1.028-0.268 1.617-0.268 0.411 0 0.807 0.031 1.187 0.093 0.388 0.054 0.764 0.081 1.129 0.081 0.163 0 0.31-0.008 0.442-0.023 0.14-0.023 0.279-0.054 0.419-0.093-0.287 0.326-0.528 0.543-0.721 0.652s-0.392 0.163-0.593 0.163c-0.178 0-0.411-0.023-0.698-0.070-0.279-0.054-0.597-0.097-0.954-0.128-0.101 0.256-0.213 0.566-0.337 0.931-0.124 0.357-0.252 0.741-0.384 1.152-0.132 0.403-0.264 0.807-0.396 1.21 0.388 0.023 0.752 0.058 1.094 0.105 0.349 0.047 0.663 0.074 0.943 0.081-0.062 0.093-0.136 0.167-0.221 0.221-0.078 0.047-0.19 0.081-0.337 0.105s-0.353 0.043-0.617 0.058c-0.256 0.008-0.601 0.015-1.036 0.023-0.047 0.163-0.105 0.357-0.175 0.582s-0.132 0.438-0.186 0.64-0.097 0.349-0.128 0.442c-0.171 0.597-0.318 1.156-0.442 1.676-0.116 0.52-0.178 0.997-0.186 1.431z"></path>
</symbol>
</defs>
</svg>
